<svg xmlns="http://www.w3.org/2000/svg" width="298" height="42.162" viewBox="0 0 298 42.162">
  <g id="그룹_6" data-name="그룹 6" transform="translate(-239.809 -97.57)">
    <path id="패스_13" data-name="패스 13" d="M394.324,123.283c-.016-.4-.049-.814-.1-1.259h3.5c-.049.445-.081.864-.1,1.259s-.025.813-.025,1.257v2.713a11.864,11.864,0,0,0,.419,3.268,9.447,9.447,0,0,0,1.185,2.629,10.142,10.142,0,0,0,1.751,2.11,13.5,13.5,0,0,0,2.171,1.617l-.666.565q-.32.27-.615.543c-.2.163-.383.328-.556.492s-.316.314-.432.446A11.422,11.422,0,0,1,399.64,138q-.677-.579-1.368-1.3a14.482,14.482,0,0,1-1.284-1.529,9.573,9.573,0,0,1-.961-1.628,6.777,6.777,0,0,1-.863,1.676,17.365,17.365,0,0,1-1.309,1.678,18.293,18.293,0,0,1-1.454,1.444,11.715,11.715,0,0,1-1.309,1.023q-.467-.419-1.171-.985t-1.37-1.037a13.648,13.648,0,0,0,2.6-1.987,10.109,10.109,0,0,0,1.887-2.529,10.562,10.562,0,0,0,.974-2.577,12.942,12.942,0,0,0,.333-3v-2.713c0-.445-.01-.863-.025-1.257m8.364,7.13c-.3,0-.6.005-.926.012a5.88,5.88,0,0,0-.9.088v-3.085a6.62,6.62,0,0,0,.938.086c.329.01.642.012.939.012h2.417v-3.058q0-.814-.025-1.64t-.1-1.666h3.33q-.074.839-.087,1.666t-.013,1.64v15.445q0,.839.013,1.666t.087,1.642h-3.33q.073-.818.1-1.642t.025-1.666v-9.5Z" transform="translate(-24.338 -3.88)" fill="#fff"/>
    <path id="패스_14" data-name="패스 14" d="M427.286,130.993c.321-.026.63-.045.924-.064s.573-.062.828-.085.489-.054.7-.087v2.666a26.721,26.721,0,0,1-2.775.294q-1.592.1-3.442.175v7.032q0,.443.013.937a6.914,6.914,0,0,0,.086.939h-3.33a6.242,6.242,0,0,0,.086-.9q.013-.481.013-.926V133.94h-2.96c-.445,0-.851.005-1.221.013s-.778.037-1.221.086V131.1c.443.051.851.079,1.221.087s.776.013,1.221.013h4.8c.271,0,.571-.008.9-.024.1-.379.206-.851.322-1.419s.221-1.163.32-1.789c.1-.607.182-1.2.247-1.789a13.651,13.651,0,0,0,.1-1.517h-5.428c-.411,0-.827.005-1.245.013a12.192,12.192,0,0,0-1.222.085v-2.884a11.72,11.72,0,0,0,1.222.085c.418.008.834.012,1.245.012H427.4q0,1.037-.086,2.211c-.057.779-.136,1.566-.234,2.354s-.214,1.573-.345,2.345-.273,1.494-.42,2.172c.328-.017.654-.038.975-.063m6.39,10.585c.008.549.037,1.1.087,1.642h-3.281c.049-.544.082-1.093.1-1.642s.026-1.107.026-1.666V124.467c0-.543-.009-1.09-.026-1.639s-.049-1.108-.1-1.667h3.281q-.075.839-.087,1.667c-.008.549-.013,1.1-.013,1.639v15.445q0,.839.013,1.666" transform="translate(-28.663 -3.88)" fill="#fff"/>
    <path id="패스_15" data-name="패스 15" d="M457.036,138.456q.963,0,1.888-.013c.617-.007,1.245-.034,1.888-.085v2.911c-.643-.048-1.271-.077-1.888-.085s-1.246-.013-1.888-.013H443.962q-.963,0-1.888.013c-.617.008-1.245.038-1.888.085v-2.911c.643.051,1.271.079,1.888.085s1.246.013,1.888.013h4.909v-4.317h-4.688c-.444,0-.843,0-1.2.013s-.744.035-1.172.085v-2.886c.428.05.818.077,1.172.085s.753.013,1.2.013h.568l-.075-6.564q-.666,0-1.2.013c-.355.008-.744.038-1.173.086v-2.91c.429.047.818.077,1.173.085s.752.013,1.2.013H456.3q.641,0,1.172-.013c.352-.008.752-.038,1.2-.085v2.91q-.667-.073-1.234-.086t-1.209-.013l-.074,6.564h.618q.64,0,1.171-.013c.353-.008.753-.034,1.2-.085v2.886c-.443-.049-.86-.077-1.246-.085s-.793-.013-1.221-.013h-4.588v4.317Zm-9.177-7.007h5.256l.073-6.564h-5.4Z" transform="translate(-32.787 -4.028)" fill="#fff"/>
    <path id="패스_16" data-name="패스 16" d="M476.623,134.9a6.822,6.822,0,0,1-1.7,2.875A3.552,3.552,0,0,1,472.4,138.8a3.972,3.972,0,0,1-3.466-2.207,11.846,11.846,0,0,1-1.344-6.155,16.327,16.327,0,0,1,.344-3.515,8.987,8.987,0,0,1,.987-2.652,4.794,4.794,0,0,1,1.505-1.7,3.457,3.457,0,0,1,4.392.429,6.771,6.771,0,0,1,1.677,2.679h2.565v-.839c0-.543-.008-1.088-.025-1.642s-.04-1.1-.073-1.664h3.158q-.074.839-.074,1.664v17.37q0,.824.074,1.64h-3.158q.049-.815.073-1.64t.025-1.667v-4Zm-5.946-2.292a8.96,8.96,0,0,0,.371,1.751,3.155,3.155,0,0,0,.579,1.159,1.037,1.037,0,0,0,.8.42.988.988,0,0,0,.765-.42,3.649,3.649,0,0,0,.591-1.159,9.7,9.7,0,0,0,.383-1.751,17.955,17.955,0,0,0,0-4.392,10.3,10.3,0,0,0-.383-1.776,3.814,3.814,0,0,0-.591-1.171.98.98,0,0,0-.765-.433,1.028,1.028,0,0,0-.8.433,3.284,3.284,0,0,0-.579,1.171,8.941,8.941,0,0,0-.371,1.764,18.523,18.523,0,0,0-.122,2.208,18.24,18.24,0,0,0,.122,2.2m6.414-4.121c.05.3.088.618.112.963s.038.674.038.986c0,.265-.013.543-.038.839s-.054.568-.087.815h1.949v-3.6Zm9.315,13.114q.011.824.086,1.64h-3.109q.073-.816.1-1.64t.025-1.666V124.467c0-.543-.008-1.091-.025-1.64s-.049-1.107-.1-1.666h3.109q-.075.839-.086,1.666c-.008.549-.013,1.1-.013,1.64v15.469q0,.839.013,1.666" transform="translate(-37.271 -3.88)" fill="#fff"/>
    <path id="패스_17" data-name="패스 17" d="M511.172,133.985a8.884,8.884,0,0,0-.1.939c-.017.312-.025.615-.025.913v3.774H498.959v1.208h11.435a8.746,8.746,0,0,0,1.122-.075v2.518c-.411-.048-.79-.08-1.134-.089s-.716-.009-1.111-.009H495.431v-5.649H507.5V136.33h-9.918q-.519,0-1.073.023t-1.074.074v-2.539c.4.047.766.076,1.111.085s.691.013,1.036.013h3.947v-1.751h-4.811q-.962,0-1.886.012c-.618.008-1.247.038-1.889.085v-2.687q.963.072,1.889.085t1.886.013h13.075q.962,0,1.888-.013t1.887-.085v2.687c-.641-.047-1.271-.077-1.887-.085s-1.247-.012-1.888-.012h-4.86v1.751Zm-5.44-10.264a6.193,6.193,0,0,0,1.936,1.455,10.735,10.735,0,0,0,2.418.926,20.438,20.438,0,0,0,2.541.481c-.3.345-.625.746-.986,1.2s-.626.795-.789,1.025a14.17,14.17,0,0,1-1.863-.42,16.6,16.6,0,0,1-2.036-.74,12.946,12.946,0,0,1-2.133-1.122,5.135,5.135,0,0,1-1.518-1.446,5.388,5.388,0,0,1-1.345,1.321,11.394,11.394,0,0,1-1.789,1.024,15.037,15.037,0,0,1-2.232.827q-1.173.332-2.282.556l-.815-1.05q-.47-.6-.986-1.172,1.356-.221,2.615-.554a13.085,13.085,0,0,0,2.294-.825,6.37,6.37,0,0,0,2.024-1.432,2.893,2.893,0,0,0,.764-2.024,2.926,2.926,0,0,0-.023-.295,1.379,1.379,0,0,0-.075-.321h3.626a.853.853,0,0,0-.085.332c-.009.126-.013.219-.013.283a2.92,2.92,0,0,0,.752,1.975" transform="translate(-41.419 -3.875)" fill="#fff"/>
    <path id="패스_18" data-name="패스 18" d="M521.618,138.937c-.4.008-.827.038-1.27.085v-2.884q.664.073,1.27.085c.4.008.834.005,1.3-.013l4.267-.072q.568,0,1.556-.063t2.1-.186q1.133-.1,2.27-.234c.755-.09,1.439-.194,2.048-.309v2.616a40.369,40.369,0,0,1-5.429.728q-3.132.239-6.808.236-.692,0-1.3.011m.011-13.667a5.466,5.466,0,0,1,1.234-1.815,6.022,6.022,0,0,1,1.924-1.246,6.475,6.475,0,0,1,2.467-.458,6.4,6.4,0,0,1,2.443.458,5.731,5.731,0,0,1,1.9,1.246,5.313,5.313,0,0,1,1.258,1.815,5.586,5.586,0,0,1,.444,2.208,5.741,5.741,0,0,1-.444,2.244,5.536,5.536,0,0,1-1.258,1.852,5.711,5.711,0,0,1-1.9,1.243,6.339,6.339,0,0,1-2.443.458,6.411,6.411,0,0,1-2.467-.458,6,6,0,0,1-1.924-1.243,5.7,5.7,0,0,1-1.234-1.852,5.77,5.77,0,0,1-.443-2.244,5.615,5.615,0,0,1,.443-2.208m3.381,4.44a3.17,3.17,0,0,0,4.465.012,3.383,3.383,0,0,0,0-4.4,2.8,2.8,0,0,0-2.221-.926,2.859,2.859,0,0,0-2.244.913,3.16,3.16,0,0,0-.815,2.173,3.259,3.259,0,0,0,.815,2.232M539.035,141.6q.013.824.086,1.64H535.89c.05-.544.082-1.091.1-1.64s.025-1.107.025-1.666V124.467c0-.543-.01-1.091-.025-1.64s-.049-1.107-.1-1.666h3.232q-.073.839-.086,1.666c-.008.549-.013,1.1-.013,1.64v15.469q0,.839.013,1.666" transform="translate(-45.946 -3.88)" fill="#fff"/>
    <path id="패스_19" data-name="패스 19" d="M554.4,126.045a4.611,4.611,0,0,0,.469,2.1,6.009,6.009,0,0,0,1.209,1.653,7.294,7.294,0,0,0,1.628,1.234,7.514,7.514,0,0,0,1.727.715c-.361.376-.732.793-1.11,1.246s-.641.784-.789,1a6.9,6.9,0,0,1-1.109-.518,11.73,11.73,0,0,1-1.356-.887,11.471,11.471,0,0,1-1.333-1.122,5.492,5.492,0,0,1-.963-1.223,5.455,5.455,0,0,1-.826,1.161,13.405,13.405,0,0,1-1.247,1.208,17.016,17.016,0,0,1-1.48,1.1,8.141,8.141,0,0,1-1.431.776c-.231-.229-.564-.551-1-.963s-.852-.8-1.246-1.158a9.706,9.706,0,0,0,2.2-1.074,8.951,8.951,0,0,0,1.9-1.638,6.828,6.828,0,0,0,1.085-1.7,4.763,4.763,0,0,0,.42-1.972v-1.259h-2.023c-.345,0-.654.005-.924.013a8.194,8.194,0,0,0-.926.085V121.95a8.263,8.263,0,0,0,.926.088c.27.008.579.012.924.012h7.3c.328,0,.632,0,.913-.012a8.3,8.3,0,0,0,.936-.088v2.862a8.235,8.235,0,0,0-.936-.085c-.281-.008-.585-.013-.913-.013H554.4Zm-4.368,11.523c0-.3,0-.61-.012-.939a7,7,0,0,0-.086-.937h3.33a6.576,6.576,0,0,0-.086.925q-.012.481-.013.9v2.615h8.76q.961,0,1.849-.013c.593-.008,1.208-.038,1.85-.085v2.911c-.642-.051-1.257-.077-1.85-.089s-1.209-.012-1.849-.012H550.034Zm9.869-8.833c-.3,0-.6.005-.924.013a6.111,6.111,0,0,0-.9.085v-2.91a6.638,6.638,0,0,0,.937.085c.329.008.642.013.939.013H562.1v-2.368c0-.413-.01-.821-.025-1.233s-.05-.831-.1-1.259h3.281c-.049.429-.078.847-.087,1.259s-.013.82-.013,1.233v10.829c0,.429,0,.847.013,1.259s.038.823.087,1.235h-3.281q.073-.618.1-1.235c.015-.412.025-.83.025-1.259v-5.747Z" transform="translate(-50.048 -3.88)" fill="#fff"/>
    <path id="패스_20" data-name="패스 20" d="M575.437,124.659v4.663h2.739c.494,0,1.073-.015,1.74-.049s1.335-.083,2.01-.148,1.316-.136,1.925-.209a11.123,11.123,0,0,0,1.48-.26v2.594q-1.036.22-3.368.492a49.512,49.512,0,0,1-5.613.271h-3.921v-7.55c0-.378-.009-.779-.025-1.2s-.049-.841-.1-1.27h9.535a12.447,12.447,0,0,0,1.271-.074v2.811c-.462-.031-.883-.052-1.271-.06s-.745-.013-1.073-.013Zm.419,10.7q2-1.4,6-1.393a10.509,10.509,0,0,1,5.983,1.407,4.111,4.111,0,0,1,2.034,3.453,4.015,4.015,0,0,1-2.034,3.428,10.816,10.816,0,0,1-5.983,1.357,10.673,10.673,0,0,1-6-1.368,3.964,3.964,0,0,1,0-6.884m9.388,5.144a1.75,1.75,0,0,0,0-3.366,7.628,7.628,0,0,0-3.367-.631,7.963,7.963,0,0,0-3.491.631,1.75,1.75,0,0,0,0,3.366,7.854,7.854,0,0,0,3.491.641,7.524,7.524,0,0,0,3.367-.641m5.094-15.123c.3,0,.609,0,.937-.012a7.013,7.013,0,0,0,.939-.086v2.91a7.083,7.083,0,0,0-.926-.086c-.321-.008-.62-.013-.9-.013H589.4v3.431c0,.429,0,.847.013,1.259a12.187,12.187,0,0,0,.086,1.232h-3.258c.049-.412.083-.82.1-1.232s.025-.831.025-1.259v-7.895q0-.618-.025-1.234c-.015-.411-.049-.83-.1-1.257H589.5q-.074.642-.086,1.257t-.013,1.234v1.751Z" transform="translate(-54.405 -3.875)" fill="#fff"/>
    <path id="패스_21" data-name="패스 21" d="M243.756,109.332s22.341,15.882,62.547.5c33.752-12.913,43.042-12.253,43.042-12.253l6.768,12.253,2.832,11.26s-21.34,1.156-50.165,9.937c-46.211,14.076-68.971-9.937-68.971-9.937Z" fill="#fca500"/>
    <path id="패스_22" data-name="패스 22" d="M245.727,106.279s22.213,13.924,58.444,1.988c0,0-28.1,6.217-53.178-10.691Z" transform="translate(-0.963 -0.001)" fill="#ffd000"/>
    <path id="패스_23" data-name="패스 23" d="M243.751,145.252l-3.942-14.015s12.775,11.685,38.321,14.015Z" transform="translate(0 -5.52)" fill="#e33c0b"/>
    <path id="패스_24" data-name="패스 24" d="M297.04,145.187a153.123,153.123,0,0,0,26.011-6.724c19.2-6.629,44.281-7.625,44.281-7.625l-4.955,14.349Z" transform="translate(-9.375 -5.455)" fill="#e33c0b"/>
    <path id="패스_25" data-name="패스 25" d="M403.151,108.033a2.831,2.831,0,0,1-.689.952,3.549,3.549,0,0,1-1.165.677,4.66,4.66,0,0,1-1.592.25,6.842,6.842,0,0,1-.827-.05,5.021,5.021,0,0,1-.8-.162,4.605,4.605,0,0,1-1.429-.577l.527-1.077c.218.126.432.236.645.332a3.492,3.492,0,0,0,.645.219,3.408,3.408,0,0,0,.626.145,5.109,5.109,0,0,0,.664.044,3.282,3.282,0,0,0,.872-.106,1.9,1.9,0,0,0,.658-.32,1.31,1.31,0,0,0,.4-.5,1.646,1.646,0,0,0,.138-.689,1.349,1.349,0,0,0-.377-.952,2.171,2.171,0,0,0-.489-.339,3.82,3.82,0,0,0-.664-.263l-1.04-.3a4.855,4.855,0,0,1-.99-.394,2.523,2.523,0,0,1-.7-.545,1.909,1.909,0,0,1-.426-.683,2.51,2.51,0,0,1-.138-.858,2.635,2.635,0,0,1,.226-1.084,2.549,2.549,0,0,1,.651-.883,2.992,2.992,0,0,1,1-.589,3.86,3.86,0,0,1,1.315-.213,5.963,5.963,0,0,1,.821.056,6.639,6.639,0,0,1,.783.157,4.661,4.661,0,0,1,.708.275,5.843,5.843,0,0,1,.62.352l-.6.977a5.431,5.431,0,0,0-.582-.319,4.709,4.709,0,0,0-.558-.219,5.782,5.782,0,0,0-.571-.12,3.793,3.793,0,0,0-.57-.044,2.348,2.348,0,0,0-.707.1,1.447,1.447,0,0,0-.533.288,1.308,1.308,0,0,0-.476,1.027,1.1,1.1,0,0,0,.106.5,1.058,1.058,0,0,0,.295.363,1.8,1.8,0,0,0,.432.276,3.351,3.351,0,0,0,.52.188l1.2.338a4.624,4.624,0,0,1,1,.408,2.979,2.979,0,0,1,.733.57,2.314,2.314,0,0,1,.432.758,2.846,2.846,0,0,1-.094,2.037" transform="translate(-25.657 -0.406)" fill="#fff"/>
    <path id="패스_26" data-name="패스 26" d="M407.566,107.257a3.29,3.29,0,0,0,.112.914,1.536,1.536,0,0,0,.351.64,1.34,1.34,0,0,0,.57.388,2.407,2.407,0,0,0,.821.126,2.652,2.652,0,0,0,1.755-.615l.538.815a3.768,3.768,0,0,1-1.146.651,3.9,3.9,0,0,1-1.323.226,3.26,3.26,0,0,1-1.385-.276,2.652,2.652,0,0,1-.984-.764,3.171,3.171,0,0,1-.614-1.159,5.066,5.066,0,0,1-.2-1.46,4.936,4.936,0,0,1,.213-1.491,3.438,3.438,0,0,1,.614-1.165,2.651,2.651,0,0,1,.928-.746,2.737,2.737,0,0,1,1.216-.269,2.919,2.919,0,0,1,1.216.238,2.346,2.346,0,0,1,.89.7,3.553,3.553,0,0,1,.532,1.191,6.525,6.525,0,0,1,.182,1.629v.25h-4.286Zm2.775-1.967a2.042,2.042,0,0,0-.27-.627,1.383,1.383,0,0,0-.445-.407,1.2,1.2,0,0,0-.6-.144,1.5,1.5,0,0,0-.633.125,1.149,1.149,0,0,0-.445.363,1.752,1.752,0,0,0-.281.62,3.505,3.505,0,0,0-.095.859h2.857a3.146,3.146,0,0,0-.094-.789" transform="translate(-27.197 -0.896)" fill="#fff"/>
    <path id="패스_27" data-name="패스 27" d="M418.536,103.341a2.763,2.763,0,0,1,.977.759,3.571,3.571,0,0,1,.6,1.165,4.939,4.939,0,0,1,.214,1.491,5.164,5.164,0,0,1-.208,1.516,3.2,3.2,0,0,1-.594,1.14,2.594,2.594,0,0,1-.972.74,3.233,3.233,0,0,1-1.309.25,3.085,3.085,0,0,1-1.241-.244,2.581,2.581,0,0,1-.964-.721,3.207,3.207,0,0,1-.64-1.146,4.941,4.941,0,0,1-.225-1.548,4.839,4.839,0,0,1,.225-1.529,3.5,3.5,0,0,1,.64-1.165,2.81,2.81,0,0,1,.959-.721,2.89,2.89,0,0,1,1.221-.256,3.081,3.081,0,0,1,1.316.269m-1.993.94a1.267,1.267,0,0,0-.464.482,2.668,2.668,0,0,0-.275.815,5.975,5.975,0,0,0-.088,1.077,7.319,7.319,0,0,0,.088,1.216,2.347,2.347,0,0,0,.288.839,1.256,1.256,0,0,0,.476.5,1.4,1.4,0,0,0,.7.162,1.348,1.348,0,0,0,.676-.162,1.25,1.25,0,0,0,.476-.5,2.452,2.452,0,0,0,.282-.8,5.912,5.912,0,0,0,.094-1.122,6.393,6.393,0,0,0-.094-1.159,2.779,2.779,0,0,0-.282-.846,1.386,1.386,0,0,0-.495-.507,1.37,1.37,0,0,0-.7-.169,1.334,1.334,0,0,0-.689.169" transform="translate(-28.524 -0.896)" fill="#fff"/>
    <path id="패스_28" data-name="패스 28" d="M423.816,107a1.782,1.782,0,0,1-.495-.445A1.624,1.624,0,0,1,423,106a1.992,1.992,0,0,1-.113-.67,2.189,2.189,0,0,1,.188-.908,2.076,2.076,0,0,1,.552-.733,2.5,2.5,0,0,1,.865-.47,3.662,3.662,0,0,1,1.153-.17,4.017,4.017,0,0,1,.545.05q.344.05.7.126c.108.025.208.05.3.075a1.654,1.654,0,0,0,.25.05c.075.017.144.028.207.038a1.624,1.624,0,0,0,.194.012,2.124,2.124,0,0,0,.676-.1,2.33,2.33,0,0,0,.6-.313l.639.8a.975.975,0,0,1-.357.232,2.618,2.618,0,0,1-.5.143,2.588,2.588,0,0,1-.538.044,1.579,1.579,0,0,1-.451-.069,2.95,2.95,0,0,1,.382.676,1.631,1.631,0,0,1,.12.576,1.933,1.933,0,0,1-.194.884,1.9,1.9,0,0,1-.532.645,2.323,2.323,0,0,1-.834.408,4.114,4.114,0,0,1-1.084.131,3.838,3.838,0,0,0-.45.157,2.727,2.727,0,0,0-.314.157.672.672,0,0,0-.2.182.348.348,0,0,0-.063.2.227.227,0,0,0,.106.206.928.928,0,0,0,.345.107,3.221,3.221,0,0,0,.583.062q.357.014.846.013a3.105,3.105,0,0,1,.933.131,2.369,2.369,0,0,1,.721.357,1.7,1.7,0,0,1,.464.608,1.94,1.94,0,0,1,.162.808,2.257,2.257,0,0,1-.181.915,1.688,1.688,0,0,1-.558.69,2.965,2.965,0,0,1-.978.451,5.228,5.228,0,0,1-1.379.162,6.51,6.51,0,0,1-1.36-.126,3.171,3.171,0,0,1-.959-.35,1.535,1.535,0,0,1-.583-.571,1.565,1.565,0,0,1-.194-.783,2.818,2.818,0,0,1,.025-.307,2.2,2.2,0,0,1,.1-.432h1.253a1.337,1.337,0,0,0-.063.25,1.958,1.958,0,0,0-.013.239,1.011,1.011,0,0,0,.106.47.824.824,0,0,0,.32.332,1.383,1.383,0,0,0,.514.2,3.727,3.727,0,0,0,.727.062,3.6,3.6,0,0,0,.733-.069,1.854,1.854,0,0,0,.583-.219,1.173,1.173,0,0,0,.357-.363.93.93,0,0,0,.131-.5.88.88,0,0,0-.125-.483.93.93,0,0,0-.377-.319,2.468,2.468,0,0,0-.657-.163,7.4,7.4,0,0,0-.922-.05,8.232,8.232,0,0,1-1.046-.056,2.706,2.706,0,0,1-.7-.169.8.8,0,0,1-.4-.307.855.855,0,0,1-.119-.457.8.8,0,0,1,.094-.37,1.05,1.05,0,0,1,.282-.332,1.9,1.9,0,0,1,.414-.282,3.664,3.664,0,0,1,.552-.232,2.22,2.22,0,0,1-.671-.27m1.221-2.857a1.1,1.1,0,0,0-.414.232,1.068,1.068,0,0,0-.257.414,1.655,1.655,0,0,0-.081.539,1.441,1.441,0,0,0,.088.526.914.914,0,0,0,.263.376,1.017,1.017,0,0,0,.414.244,1.864,1.864,0,0,0,.577.081,1.653,1.653,0,0,0,.551-.087,1.312,1.312,0,0,0,.426-.239,1.024,1.024,0,0,0,.257-.382,1.408,1.408,0,0,0,.095-.532,1.374,1.374,0,0,0-.095-.521,1.313,1.313,0,0,0-.257-.407,1.488,1.488,0,0,0-.432-.238,1.6,1.6,0,0,0-.545-.088,1.936,1.936,0,0,0-.589.081" transform="translate(-29.92 -0.881)" fill="#fff"/>
    <path id="패스_29" data-name="패스 29" d="M435.436,105.369c-.042.167-.087.334-.138.5s-.09.363-.143.563-.116.435-.182.7l-.827,3.145h-1.3l-1.6-5.828c-.067-.217-.128-.413-.182-.589s-.123-.38-.207-.615h1.491c.025.226.052.435.081.627a6.256,6.256,0,0,0,.132.626l.5,2.068q.088.4.219.915t.282,1.077q.113-.539.232-1.027c.079-.327.169-.668.27-1.028l.877-3.258h1.379l.777,3.2c.042.175.085.363.131.563s.095.4.144.6.1.393.151.577.1.342.137.476c.026-.134.057-.3.095-.489s.081-.388.131-.589.085-.4.131-.6.09-.373.131-.532l.464-1.955c.05-.208.09-.414.119-.614s.057-.414.082-.64h1.516c-.05.117-.094.228-.131.332s-.07.2-.095.295-.062.2-.087.295-.05.19-.075.281l-1.654,5.828H436.99l-.852-3.221c-.074-.25-.167-.589-.275-1.015s-.2-.836-.288-1.229l-.138.552" transform="translate(-31.253 -0.925)" fill="#fff"/>
    <path id="패스_30" data-name="패스 30" d="M444.747,101.225a.906.906,0,0,1-.695.306.954.954,0,0,1-.721-.294,1.006,1.006,0,0,1-.282-.721.959.959,0,0,1,.275-.7.942.942,0,0,1,.7-.282,1,1,0,0,1,.7.276.911.911,0,0,1,.3.7,1.014,1.014,0,0,1-.282.708m-.031,7.174c0,.226,0,.439.013.64s.025.413.05.639h-1.492q.025-.339.044-.639c.013-.2.018-.414.018-.64v-4.374q0-.338-.018-.633t-.044-.633h1.492q-.038.339-.05.633t-.013.633Z" transform="translate(-33.245 -0.321)" fill="#fff"/>
    <path id="패스_31" data-name="패스 31" d="M449.117,103.723a2.267,2.267,0,0,1,1.009-.577,2.079,2.079,0,0,1,.539-.075,2.338,2.338,0,0,1,1.047.238,2.447,2.447,0,0,1,.833.676,3.464,3.464,0,0,1,.532,1.1,5.169,5.169,0,0,1,.194,1.479,6.982,6.982,0,0,1-.157,1.535,3.344,3.344,0,0,1-.495,1.184,2.293,2.293,0,0,1-.865.789,2.644,2.644,0,0,1-1.241.275,2.391,2.391,0,0,1-.445-.044,1.741,1.741,0,0,1-.457-.157,2.177,2.177,0,0,1-.464-.239,2.551,2.551,0,0,1-.439-.375v1.8q0,.338.013.633t.05.645h-1.4c.024-.234.044-.45.056-.645s.018-.408.018-.633v-6.817c0-.109,0-.217-.013-.326l-.025-.326c-.017-.109-.029-.219-.037-.332s-.018-.227-.025-.345h1.428c-.008.059-.015.134-.019.226s-.01.188-.018.288-.015.2-.019.288-.006.163-.006.213a3.192,3.192,0,0,1,.407-.489m-.369,4.775a1.829,1.829,0,0,0,.326.357,1.714,1.714,0,0,0,.363.232,1.2,1.2,0,0,0,.363.137,1.917,1.917,0,0,0,.377.038,1.563,1.563,0,0,0,.72-.157,1.26,1.26,0,0,0,.507-.482,2.561,2.561,0,0,0,.289-.789,5.446,5.446,0,0,0,.1-1.1,7.009,7.009,0,0,0-.075-1.1,2.734,2.734,0,0,0-.238-.8,1.227,1.227,0,0,0-.457-.476,1.371,1.371,0,0,0-.7-.163,1.536,1.536,0,0,0-.89.288,2.338,2.338,0,0,0-.388.345,1.993,1.993,0,0,0-.3.445Z" transform="translate(-33.95 -0.896)" fill="#fff"/>
    <path id="패스_32" data-name="패스 32" d="M459.953,103.341a2.763,2.763,0,0,1,.977.759,3.571,3.571,0,0,1,.6,1.165,4.94,4.94,0,0,1,.213,1.491,5.164,5.164,0,0,1-.208,1.516,3.206,3.206,0,0,1-.594,1.14,2.594,2.594,0,0,1-.972.74,3.233,3.233,0,0,1-1.309.25,3.084,3.084,0,0,1-1.241-.244,2.581,2.581,0,0,1-.964-.721,3.206,3.206,0,0,1-.64-1.146,4.941,4.941,0,0,1-.225-1.548,4.839,4.839,0,0,1,.225-1.529,3.5,3.5,0,0,1,.64-1.165,2.81,2.81,0,0,1,.959-.721,2.89,2.89,0,0,1,1.221-.256,3.081,3.081,0,0,1,1.316.269m-1.993.94a1.267,1.267,0,0,0-.464.482,2.669,2.669,0,0,0-.275.815,5.973,5.973,0,0,0-.088,1.077,7.316,7.316,0,0,0,.088,1.216,2.347,2.347,0,0,0,.288.839,1.256,1.256,0,0,0,.476.5,1.4,1.4,0,0,0,.7.162,1.348,1.348,0,0,0,.676-.162,1.25,1.25,0,0,0,.476-.5,2.451,2.451,0,0,0,.282-.8,5.912,5.912,0,0,0,.094-1.122,6.393,6.393,0,0,0-.094-1.159,2.778,2.778,0,0,0-.282-.846,1.386,1.386,0,0,0-.495-.507,1.371,1.371,0,0,0-.7-.169,1.334,1.334,0,0,0-.689.169" transform="translate(-35.299 -0.896)" fill="#fff"/>
    <path id="패스_33" data-name="패스 33" d="M473.579,109.025q-.082-.352-.194-.714l-.351-1.1h-3.409l-.326,1.1q-.113.375-.207.72t-.182.733h-1.554c.059-.134.111-.257.157-.37s.09-.224.132-.332.083-.219.125-.332l.138-.37,2.682-8.133h1.667l2.619,8.133q.113.377.232.689t.307.715h-1.667c-.059-.26-.116-.506-.169-.739m-1.761-6.116q-.113-.35-.226-.777c-.074-.284-.137-.539-.188-.764-.025.1-.059.217-.1.351l-.126.4q-.074.213-.137.414c-.042.134-.08.255-.113.363l-.964,3.158h2.769Z" transform="translate(-37.225 -0.433)" fill="#fff"/>
    <path id="패스_34" data-name="패스 34" d="M479.653,103.769a3.035,3.035,0,0,1,.507-.4,2.666,2.666,0,0,1,.507-.238,1.5,1.5,0,0,1,.483-.088,1.257,1.257,0,0,1,.257.025l.182.038-.276,1.391a1.35,1.35,0,0,0-.745-.094,1.469,1.469,0,0,0-.733.32,1.789,1.789,0,0,0-.338.357,1.327,1.327,0,0,0-.175.408v3.459c0,.117,0,.228.006.332s.007.207.007.306.016.205.024.314.021.217.038.326h-1.5c.017-.226.032-.439.044-.64s.019-.413.019-.639v-4.311q0-.338-.025-.7t-.05-.708h1.428c-.008.051-.017.126-.024.226s-.013.205-.013.313-.017.213-.024.314-.013.179-.013.238a2.4,2.4,0,0,1,.419-.552" transform="translate(-38.944 -0.891)" fill="#fff"/>
    <path id="패스_35" data-name="패스 35" d="M485.405,102.871q.324-.013.815-.05l-.263,1.128c-.269-.016-.5-.029-.691-.038s-.421-.012-.688-.012v3.984a3.562,3.562,0,0,0,.037.6.716.716,0,0,0,.214.383.428.428,0,0,0,.256.131,1.394,1.394,0,0,0,.357.018,2.932,2.932,0,0,0,.394-.049,2.25,2.25,0,0,0,.333-.088l.15.9a2.506,2.506,0,0,1-.64.207,3.587,3.587,0,0,1-.651.069,2.6,2.6,0,0,1-.784-.106,1.275,1.275,0,0,1-.545-.332,1.326,1.326,0,0,1-.337-.545,2.411,2.411,0,0,1-.114-.784V103.9h-.789v-1.016h.789q0-.262-.005-.507c0-.163-.011-.32-.018-.47s-.018-.3-.027-.439-.017-.276-.025-.4l1.53-.226a10.076,10.076,0,0,0-.095,1.009q-.018.483-.018,1.034c.326,0,.6,0,.815-.013" transform="translate(-39.693 -0.532)" fill="#fff"/>
    <path id="패스_36" data-name="패스 36" d="M492.964,109.035a2.051,2.051,0,0,1-.563.739,2.618,2.618,0,0,1-.89.476,3.8,3.8,0,0,1-1.153.162,4.818,4.818,0,0,1-.633-.044,4.366,4.366,0,0,1-.671-.144,4.565,4.565,0,0,1-.689-.232,5.348,5.348,0,0,1-.651-.332l.5-.978a6.159,6.159,0,0,0,.6.319,3.458,3.458,0,0,0,.577.207,3.58,3.58,0,0,0,.545.107,4.721,4.721,0,0,0,.546.031,1.706,1.706,0,0,0,.52-.075,1.18,1.18,0,0,0,.407-.226,1.121,1.121,0,0,0,.244-.326.885.885,0,0,0,.094-.4.8.8,0,0,0-.081-.363,1.026,1.026,0,0,0-.232-.3,1.864,1.864,0,0,0-.394-.226,3.467,3.467,0,0,0-.533-.175l-.852-.213a2.692,2.692,0,0,1-.633-.225,2.057,2.057,0,0,1-.52-.377,1.777,1.777,0,0,1-.363-.532,1.747,1.747,0,0,1-.137-.721,1.982,1.982,0,0,1,.194-.877,2.138,2.138,0,0,1,.545-.7,2.6,2.6,0,0,1,.8-.458,2.991,2.991,0,0,1,1.027-.168,4.385,4.385,0,0,1,.558.037,5.09,5.09,0,0,1,.6.113q.289.088.57.194a4.077,4.077,0,0,1,.532.244l-.463.964c-.159-.083-.309-.157-.451-.219s-.28-.119-.414-.168q-.214-.05-.419-.082a2.913,2.913,0,0,0-.42-.031,1.475,1.475,0,0,0-.482.075,1.309,1.309,0,0,0-.37.188.965.965,0,0,0-.25.32.9.9,0,0,0-.088.394.676.676,0,0,0,.063.295.718.718,0,0,0,.2.244,1.21,1.21,0,0,0,.32.2,2.566,2.566,0,0,0,.457.151l.9.238a3.247,3.247,0,0,1,.764.295,2.527,2.527,0,0,1,.552.407,1.714,1.714,0,0,1,.326.539,1.915,1.915,0,0,1,.113.677,2.317,2.317,0,0,1-.2.977" transform="translate(-40.553 -0.881)" fill="#fff"/>
    <path id="패스_37" data-name="패스 37" d="M504.885,109.68a4.611,4.611,0,0,1-1.366.2,4.107,4.107,0,0,1-1.61-.314,3.476,3.476,0,0,1-1.284-.927,4.159,4.159,0,0,1-.877-1.491,6.172,6.172,0,0,1-.313-2.056,6.664,6.664,0,0,1,.313-2.117,4.769,4.769,0,0,1,.877-1.6,3.78,3.78,0,0,1,1.309-1,3.823,3.823,0,0,1,1.622-.351,4.277,4.277,0,0,1,1.3.188,2.959,2.959,0,0,1,.972.489l-.614.877a3.155,3.155,0,0,0-.745-.351,2.987,2.987,0,0,0-.9-.125,2.518,2.518,0,0,0-1.09.231,2.173,2.173,0,0,0-.827.7,3.388,3.388,0,0,0-.533,1.2,7.063,7.063,0,0,0-.182,1.7,7.342,7.342,0,0,0,.176,1.71,3.307,3.307,0,0,0,.526,1.209,2.11,2.11,0,0,0,.846.728,2.76,2.76,0,0,0,1.185.238,3.01,3.01,0,0,0,.953-.137,2.892,2.892,0,0,0,.777-.4l.626.84a3.742,3.742,0,0,1-1.14.563" transform="translate(-42.471 -0.398)" fill="#fff"/>
    <path id="패스_38" data-name="패스 38" d="M509.394,107.257a3.289,3.289,0,0,0,.112.914,1.536,1.536,0,0,0,.351.64,1.34,1.34,0,0,0,.57.388,2.407,2.407,0,0,0,.821.126,2.652,2.652,0,0,0,1.755-.615l.538.815a3.768,3.768,0,0,1-1.146.651,3.9,3.9,0,0,1-1.323.226,3.26,3.26,0,0,1-1.385-.276,2.652,2.652,0,0,1-.984-.764,3.171,3.171,0,0,1-.614-1.159,5.067,5.067,0,0,1-.2-1.46,4.936,4.936,0,0,1,.213-1.491,3.438,3.438,0,0,1,.614-1.165,2.652,2.652,0,0,1,.928-.746,2.737,2.737,0,0,1,1.216-.269,2.919,2.919,0,0,1,1.216.238,2.346,2.346,0,0,1,.89.7,3.554,3.554,0,0,1,.532,1.191,6.527,6.527,0,0,1,.182,1.629v.25h-4.286Zm2.775-1.967a2.041,2.041,0,0,0-.27-.627,1.382,1.382,0,0,0-.445-.407,1.2,1.2,0,0,0-.6-.144,1.5,1.5,0,0,0-.633.125,1.149,1.149,0,0,0-.445.363,1.752,1.752,0,0,0-.281.62,3.505,3.505,0,0,0-.095.859h2.857a3.145,3.145,0,0,0-.094-.789" transform="translate(-43.854 -0.896)" fill="#fff"/>
    <path id="패스_39" data-name="패스 39" d="M521.906,108.949q0,.339.013.639c.008.2.025.414.05.64H520.49c.017-.226.031-.439.044-.64s.019-.413.019-.639v-3.534a1.775,1.775,0,0,0-.063-.482,1.125,1.125,0,0,0-.176-.37.946.946,0,0,0-.326-.232,1.094,1.094,0,0,0-.439-.081,1.535,1.535,0,0,0-.852.306,2.781,2.781,0,0,0-.752.759v3.634q0,.339.013.639c.008.2.025.414.05.64h-1.441c.017-.226.031-.439.044-.64s.018-.413.018-.639v-4.311c0-.109,0-.218-.012-.327s-.017-.217-.026-.326-.017-.219-.024-.332-.017-.228-.025-.345h1.378q-.013.188-.025.527c-.008.225-.013.4-.013.513a4.616,4.616,0,0,1,.445-.5,3.181,3.181,0,0,1,.52-.414,2.716,2.716,0,0,1,.558-.263,1.829,1.829,0,0,1,.6-.1,2.074,2.074,0,0,1,.746.131,1.72,1.72,0,0,1,.607.394,2.047,2.047,0,0,1,.4.69,2.853,2.853,0,0,1,.151.977Z" transform="translate(-45.269 -0.896)" fill="#fff"/>
    <path id="패스_40" data-name="패스 40" d="M527.241,102.871q.325-.013.815-.05l-.263,1.128c-.268-.016-.5-.029-.69-.038s-.422-.012-.689-.012v3.984a3.544,3.544,0,0,0,.038.6.716.716,0,0,0,.214.383.428.428,0,0,0,.256.131,1.394,1.394,0,0,0,.357.018,2.951,2.951,0,0,0,.394-.049,2.211,2.211,0,0,0,.332-.088l.151.9a2.506,2.506,0,0,1-.64.207,3.6,3.6,0,0,1-.651.069,2.593,2.593,0,0,1-.784-.106,1.275,1.275,0,0,1-.545-.332,1.326,1.326,0,0,1-.338-.545,2.435,2.435,0,0,1-.113-.784V103.9H524.3v-1.016h.789c0-.175,0-.344-.006-.507s-.011-.32-.018-.47-.018-.3-.026-.439-.017-.276-.025-.4l1.53-.226a9.864,9.864,0,0,0-.095,1.009q-.018.483-.018,1.034.488,0,.815-.013" transform="translate(-46.536 -0.532)" fill="#fff"/>
    <path id="패스_41" data-name="패스 41" d="M531.338,107.257a3.286,3.286,0,0,0,.112.914,1.535,1.535,0,0,0,.351.64,1.34,1.34,0,0,0,.57.388,2.406,2.406,0,0,0,.821.126,2.652,2.652,0,0,0,1.755-.615l.538.815a3.768,3.768,0,0,1-1.146.651,3.9,3.9,0,0,1-1.323.226,3.26,3.26,0,0,1-1.385-.276,2.653,2.653,0,0,1-.984-.764,3.171,3.171,0,0,1-.614-1.159,5.068,5.068,0,0,1-.2-1.46,4.935,4.935,0,0,1,.214-1.491,3.437,3.437,0,0,1,.614-1.165,2.652,2.652,0,0,1,.928-.746,2.737,2.737,0,0,1,1.216-.269,2.919,2.919,0,0,1,1.216.238,2.345,2.345,0,0,1,.89.7,3.552,3.552,0,0,1,.532,1.191,6.524,6.524,0,0,1,.183,1.629v.25h-4.286Zm2.775-1.967a2.043,2.043,0,0,0-.27-.627,1.383,1.383,0,0,0-.445-.407,1.2,1.2,0,0,0-.6-.144,1.5,1.5,0,0,0-.633.125,1.149,1.149,0,0,0-.445.363,1.752,1.752,0,0,0-.281.62,3.5,3.5,0,0,0-.095.859h2.857a3.145,3.145,0,0,0-.094-.789" transform="translate(-47.491 -0.896)" fill="#fff"/>
    <path id="패스_42" data-name="패스 42" d="M540.229,103.769a3.038,3.038,0,0,1,.507-.4,2.667,2.667,0,0,1,.507-.238,1.5,1.5,0,0,1,.483-.088,1.257,1.257,0,0,1,.257.025l.182.038-.276,1.391a1.35,1.35,0,0,0-.745-.094,1.469,1.469,0,0,0-.733.32,1.787,1.787,0,0,0-.338.357,1.327,1.327,0,0,0-.175.408v3.459c0,.117,0,.228.006.332s.007.207.007.306.016.205.024.314.021.217.038.326h-1.5c.017-.226.032-.439.044-.64s.019-.413.019-.639v-4.311q0-.338-.025-.7t-.05-.708h1.428c-.008.051-.017.126-.024.226s-.013.205-.013.313-.017.213-.024.314-.013.179-.013.238a2.4,2.4,0,0,1,.419-.552" transform="translate(-48.894 -0.891)" fill="#fff"/>
  </g>
</svg>
