<svg xmlns="http://www.w3.org/2000/svg" xmlns:xlink="http://www.w3.org/1999/xlink" width="282" height="19.763" viewBox="0 0 282 19.763">
  <defs>
    <clipPath id="clip-path">
      <rect id="사각형_239" data-name="사각형 239" width="229.547" height="17.208" fill="none"/>
    </clipPath>
    <clipPath id="clip-path-2">
      <rect id="사각형_338" data-name="사각형 338" width="50.228" height="19.564" fill="none"/>
    </clipPath>
  </defs>
  <g id="그룹_284" data-name="그룹 284" transform="translate(-1043 -21.183)">
    <g id="그룹_239" data-name="그룹 239" transform="translate(1095.453 23.737)">
      <g id="그룹_238" data-name="그룹 238" transform="translate(0 0)" clip-path="url(#clip-path)">
        <path id="패스_331" data-name="패스 331" d="M1.219,10.262.273,9.425l.4-.891.837-.618.473-.728.346-.837L3.966,4.423,3.8,4.059l-.655.273q-.273,0-.682.018a2.162,2.162,0,0,0-.646.109,1.648,1.648,0,0,1-.291.091,3.3,3.3,0,0,0-.327.091l-.364.073L.664,4.75A1.124,1.124,0,0,0,.491,4.8.353.353,0,0,1,0,4.586l.036-1.6.509-.364,1.928-.109a4.866,4.866,0,0,1,1,.064,1.911,1.911,0,0,1,.564.155.525.525,0,0,0,.291.109q.182.018.291.018a2.576,2.576,0,0,0,.6-.091q.164-.036.346-.073t.382-.073a3.934,3.934,0,0,1,.546,0,.254.254,0,0,1,.182.1,1.563,1.563,0,0,1,.173.236q.082.136.146.264a1.867,1.867,0,0,0,.1.182,1.019,1.019,0,0,1,.009.464,1.032,1.032,0,0,1-.155.464l-.91.819a1.185,1.185,0,0,1-.136.182q-.082.091-.173.2a2.559,2.559,0,0,1-.164.218,1.629,1.629,0,0,0-.146.2.672.672,0,0,0-.273.318,1.317,1.317,0,0,0-.109.391Q5,6.7,4.911,6.778c-.061.055-.121.117-.182.182s-.121.139-.182.218a.584.584,0,0,0-.109.191,2.089,2.089,0,0,1-.127.191A.768.768,0,0,0,4.2,7.77a.325.325,0,0,0,.018.236.622.622,0,0,0,.273.255.941.941,0,0,0,.4.191q.218.045.437.1a2.479,2.479,0,0,1,.464.118,2.023,2.023,0,0,1,.482.264l.509,2.91a3.771,3.771,0,0,1,.045.491.392.392,0,0,1-.173.382l-.855.509L4.657,12.7l-.6-.764-.127-2.71-.437-.473L1.928,10.171Zm10.314-3.62.073.218-.091.709.055.236q-.036.691-.045,1.246t-.009.973v1.019a1.329,1.329,0,0,1-.255.673.8.8,0,0,1-.191.218.228.228,0,0,1-.155.045.449.449,0,0,1-.146-.045q-.073-.036-.164-.073a1.936,1.936,0,0,0-.382-.073.542.542,0,0,0-.346.073.307.307,0,0,1-.3-.1.344.344,0,0,1-.045-.282l.073-.218-.073-.273L9.514,9.243,9.386,8.17a.471.471,0,0,0-.127-.209A.514.514,0,0,0,9.1,7.824H8.677q-.309.182-.491.309c-.121.086-.218.152-.291.2l-.164.146a.256.256,0,0,1-.109.036.445.445,0,0,1-.173.009Q7.331,8.515,7.2,8.5c-.085-.012-.173-.023-.264-.036s-.167-.024-.227-.036a.892.892,0,0,0-.136-.391,3.792,3.792,0,0,0-.264-.373q-.146-.164-.3-.309A1.565,1.565,0,0,1,5.785,7.1q0-.236.437-.455c.049-.024.142-.065.282-.127l.464-.2q.236-.109.482-.218a2.781,2.781,0,0,0,.409-.218,1.456,1.456,0,0,0,.455.055A.262.262,0,0,0,8.5,5.841a.6.6,0,0,0,.382.382.487.487,0,0,0,.437-.018.325.325,0,0,0,.155-.273.621.621,0,0,0-.082-.273,3.6,3.6,0,0,0-.236-.291l.073-.2-.091-.091L9.077,4.3a4.319,4.319,0,0,1,0-.564A.888.888,0,0,1,9.1,3.54a.888.888,0,0,0,.018-.191l.437-.491,1.546.091a1.674,1.674,0,0,1,.327.346q.091.146.146.236a.462.462,0,0,0-.055.182,2.045,2.045,0,0,0,0,.391q.018.264.055.691T11.7,5.841Zm1.091,2.874V9.17l.018-.873.127-.546-.127-.819.146-.546-.146-.764.109-1.764-.091-.509.018-1.31q0-.2.455-.236a4.212,4.212,0,0,1,.555,0q.318.018.737.036A.581.581,0,0,1,14.844,2a1.048,1.048,0,0,1,.2.364V3.422l.127,1.928-.018,2.256-.309,1.31.036,1.419-.291,1.019.055.2q-.182,1.073-.4,1.11a1.022,1.022,0,0,1-.2.018,1.679,1.679,0,0,0-.236.018q-.273.036-.528.045t-.382.009a.249.249,0,0,1-.209-.082.417.417,0,0,1-.082-.191,1.151,1.151,0,0,1,0-.291Z" transform="translate(0 0.925)"/>
        <path id="패스_332" data-name="패스 332" d="M19.328,1.1l.182.073a.712.712,0,0,1,.164.091.4.4,0,0,1,.091.437l-.146.6a3.581,3.581,0,0,0-.573.3,4.41,4.41,0,0,0-.737.573,4.327,4.327,0,0,0-.664.755,1.34,1.34,0,0,0-.264.828L16.29,6.134l-.164.91-.564.218L15.235,8.5l-1.51.327-1.091-.582-.255-.8A1.634,1.634,0,0,1,12.661,7a7.808,7.808,0,0,1,.555-.609l.273-.728,2.6-2.237.109-.382a.513.513,0,0,0-.164-.164.343.343,0,0,0-.109-.018.343.343,0,0,1-.109-.018l-1.837.036-.546.273-2.11-.382-.273-.582L11.106.968l5.439-.2.346.2Zm-3.62,8.386h1.6L19.237,8.9l2.092-.055,2.583-.509A.209.209,0,0,1,24.1,8.4a.9.9,0,0,1,.136.173q.055.127.109.291l-.182,1.073q-.091.255-.637.546l-1.328.437-.91-.055-.873.309-.618.073a.4.4,0,0,0-.309.418l.418,3.311-.091.473-.564.018-.473.437-1.546-.109-.036-.437L17,13.92l.018-1.237a2.037,2.037,0,0,1,.236-.391q.146-.191.291-.355.127-.146.218-.255a.318.318,0,0,0,.091-.164,1.56,1.56,0,0,0-.2-.2l-.382-.146-.146.255-.782.073-.473-.109-2.128.491q-.146.018-.255.036a1.225,1.225,0,0,1-.2.018q-.2.036-.236,0l-.637-.582a4.021,4.021,0,0,1-.082-.537,2.061,2.061,0,0,1,.009-.518.459.459,0,0,1,.182-.3.783.783,0,0,1,.327-.173Zm6.549-4.93a5.561,5.561,0,0,1,1.564.6,1.264,1.264,0,0,1,.418.6.6.6,0,0,1-.136.473,5.306,5.306,0,0,1-.427.564q-.255.273-.473.473t-.218.182q-.255-.146-.455-.264t-.382-.209q-.2-.091-.409-.164a3.664,3.664,0,0,0-.482-.127l-.728-.255a.317.317,0,0,1-.164-.091,1.192,1.192,0,0,0-.182-.146A.806.806,0,0,0,19.9,6.08a1.048,1.048,0,0,0-.427.018q-.291-.055-.628-.136t-.664-.136q-.055,0-.127-.136a1.177,1.177,0,0,1-.109-.3,1.588,1.588,0,0,1-.073-.327.336.336,0,0,1,.036-.236,2.474,2.474,0,0,1,.391-.082q.209-.027.373-.064a.952.952,0,0,0,.273-.1.175.175,0,0,0,.091-.191,1.206,1.206,0,0,1,.728-.182q.437.055.773.1l.609.082.537.073q.264.036.573.091" transform="translate(5.701 0.396)"/>
        <path id="패스_333" data-name="패스 333" d="M32.348,7.983l1.164.164.382.691v.473q0,.2-.509.327a2.59,2.59,0,0,1-.346.027q-.255.009-.582.027-.327.036-.691.064t-.673.045l-3.947.509.018-.291-.855.236-2.783.455-.855.2-.618-.073-.618-.746-.218-.837.4-.437,1.055-.127,1.419.091,1.128-.236.928.055,3.111-.327ZM25.8,3l.091.4.127.055-.146.637,1.837-.455,1.2-.018.546-.4,2.074-.236.255,1.128-.2.528a5.984,5.984,0,0,1-.655.109q-.437.055-.928.109a2.25,2.25,0,0,0-.473.118.483.483,0,0,1-.4-.009q-.182.109-.337.182a1.008,1.008,0,0,1-.282.091l-.728.2L25.8,5.363l.091.855.4.127,1.637-.055L28.946,6l2.165-.491a.945.945,0,0,1,.628.091.456.456,0,0,1,.191.509l-.127.946-.673.273-.928.045q-.546.027-1.091.064a4.13,4.13,0,0,0-.473.082l-.327.082a1.6,1.6,0,0,1-.509.109h-.218l-.782.255-1.928-.036L23.58,7.6l-.055-1.4.218-2.656q.491-.327.491-.573a.478.478,0,0,0-.255-.409l-.891-.582.382-.873L27.745.725l.891.091L31.4.288V2.071L30.238,2.4l-3.274.473-1-.2Zm6.312,10.914q-.273,2.638-.491,2.656-.236.036-.509.055-.291.036-.582.064t-.455.027q-.582-.036-.719-.418a1.61,1.61,0,0,1-.064-.819q.018-.309.036-.628a2.762,2.762,0,0,1,.055-.464q.018-.127.027-.264a1.263,1.263,0,0,1,.045-.264,1.494,1.494,0,0,1,.091-.264.8.8,0,0,1,.164-.227.829.829,0,0,0,.182-.327,1.233,1.233,0,0,0,.073-.382q-.018-.164-.127-.191t-.382.246l-5,.8-1.073-.236a.4.4,0,0,1-.082-.264,3.141,3.141,0,0,1,.009-.409q.018-.255.027-.355a.719.719,0,0,1,.027-.155A.192.192,0,0,1,23.425,12a.836.836,0,0,0,.136-.182q.073-.109.136-.2t.082-.091l3.838-.218a1.611,1.611,0,0,0,.327-.082q.182-.064.364-.136a3.556,3.556,0,0,1,.391-.118,2.943,2.943,0,0,1,.355-.064L32,10.839l.455.473a2.382,2.382,0,0,0-.1.746q.009.382.118.455-.018.055-.064.155t-.118.227a2.494,2.494,0,0,1-.127.255,1.151,1.151,0,0,0-.109.255Z" transform="translate(10.944 0.148)"/>
        <path id="패스_334" data-name="패스 334" d="M38.755,8.772l-1.11.2h-.418l-1.473.418-.819.364-.346-.073-1.455.309-1.364.055-.509-1.073.091-.855-.073-1.31-.127-.819-.036-.946-.127-.2-.473-2.6.746-.782,1.91.309.073.928-.055.327.127.309.182,1.11a14.984,14.984,0,0,0,1.473-.273.421.421,0,0,1,.091-.055.1.1,0,0,1,.036-.073.123.123,0,0,0,.036-.091l1.019-.109.455.218.364-1.546.182-.164.091-1.073L37.537,1h1.492l.4.364L39.519,2.5l-.2.364-.255,1.71-.891,2.146.109.291.891.4.109.528ZM36.027,5.716l-1.437.327-.637.382q.055.218-.036.264a.58.58,0,0,1-.255.045l.255,1.619,1.473-.418.928-.509.127-1.892Zm7.531,7.531-.364.473-3.092.4a.634.634,0,0,0-.373.427,1.98,1.98,0,0,0-.1.591l5.439-1.073q.218,0,.455.009t.473.009q.218.055.464.091a3.287,3.287,0,0,0,.482.036l-.091,1.946-3.729-.109a8.619,8.619,0,0,1-1.31.327l-.655.164q-.146.036-.3.082a2.023,2.023,0,0,1-.282.064l-3.638.146-.091-1.637,1.292-2.438,4.457-.728-.073-.928-.364-.164-3,.382-1.11.509-.564-.073-.018-1.473a1.317,1.317,0,0,1,.418-.273,3.6,3.6,0,0,1,.546-.182l3.529-.6,1.419.291,1.783.091q.109.273.2.537a1.747,1.747,0,0,1,.091.573l-.055,1.71-.91.455ZM42.43,7.026l-2.11.364-1.182-.564q.236-1.31.382-1.31a.635.635,0,0,1,.155-.018,1.537,1.537,0,0,0,.209-.018q.218,0,.573-.027t.791-.082a1.417,1.417,0,0,0,.564-.109.5.5,0,0,0,.136-.018l.136-.036a.432.432,0,0,0,.118-.018l.136-.036.473.327Zm.891.764-.055-.509.364-1.473V4.934l-.146-.746a1.283,1.283,0,0,0-.136-.628.4.4,0,0,0-.464-.191l-2.2.546A.737.737,0,0,1,40,3.743a.626.626,0,0,1-.191-.573L39.9,1.9l2.838-.273q.255.273.373.282a.163.163,0,0,0,.173-.1q.018-.055.036-.118a.569.569,0,0,0,.018-.155.522.522,0,0,1,.127-.273L44.34.732q.218,0,.509.027a5.484,5.484,0,0,1,.564.082,2.386,2.386,0,0,0,.3.055q.155.018.355.036l.291,1.037-.182.873L46.3,5.261l-.2.528-.091.564-.218.709-.091,1-.018.546-1,.164-.127-.2-.837.2-.509-.218Z" transform="translate(15.742 0.377)"/>
        <path id="패스_335" data-name="패스 335" d="M44.75,2.772q.382,0,.919.018l1.082.036q.528.018.964.036a5.039,5.039,0,0,0,.618,0,1.5,1.5,0,0,1,.618.091,1.183,1.183,0,0,1,.4.446,3.445,3.445,0,0,1,.364.755,1.238,1.238,0,0,1,.064.582,1.109,1.109,0,0,1-.209.437L48.406,6.755l-.473.346-.255.455a.708.708,0,0,1-.309.191,2.315,2.315,0,0,0-.291.1.526.526,0,0,0-.227.218.776.776,0,0,0-.045.455.187.187,0,0,0,.146.164q.127.036.291.073.182.018.373.055a.956.956,0,0,1,.355.146l.382.036.491.437,1.764.728q.291.055.3.227a.563.563,0,0,1-.045.282l.018.164-.273.382-.655.255a2.943,2.943,0,0,1-.255.373,3.579,3.579,0,0,1-.255.3l-.782.164a1.058,1.058,0,0,1-.418-.182,1.444,1.444,0,0,1-.364-.236q-.055-.073-.118-.173t-.136-.209q-.073-.091-.146-.191t-.127-.191a.89.89,0,0,0-.173-.164q-.1-.073-.191-.146-.109-.073-.209-.146a.707.707,0,0,1-.173-.182,2.34,2.34,0,0,0-.246-.246q-.118-.1-.191-.155a.335.335,0,0,0-.327.027.967.967,0,0,0-.273.246L45.4,10.6q-.055.082-.118.173A2.227,2.227,0,0,1,45.1,11l-.382.409-.509.109a2.175,2.175,0,0,1-.582.655.593.593,0,0,1-.646.109,6.064,6.064,0,0,1-.719-.4.33.33,0,0,1-.146-.364,1.6,1.6,0,0,1,.109-.418q.073-.146.227-.391t.409-.609q.255-.364.537-.728t.591-.746q.291-.382.573-.746t.518-.664q.236-.3.409-.528a2.492,2.492,0,0,0,.227-.337,1.72,1.72,0,0,0,.637-.364,1.549,1.549,0,0,0,.364-.473.568.568,0,0,0,.055-.409.278.278,0,0,0-.273-.191,3.817,3.817,0,0,0-.864.091,3.932,3.932,0,0,0-.682.218q-.2.109-.346.182a1.717,1.717,0,0,1-.309.118q-.164.045-.373.082t-.518.073q-.364.036-.691.064a1.819,1.819,0,0,1-.4.009,1.145,1.145,0,0,0-.709-.746l.236-1.51Zm8.568-.528.746.273a1.092,1.092,0,0,1,.2.637l.055.546.018,1.564-.236.873.291.382a3.236,3.236,0,0,0,.691,0l.391-.036.355-.036a3.826,3.826,0,0,0,.855-.146l.391-.073a1.9,1.9,0,0,1,.355-.036l.709.473L57.92,7.847l-.291.491q-.036.364-.346.346l-1.328-.073a1.15,1.15,0,0,1-.191-.027q-.136-.027-.318-.045a2.533,2.533,0,0,0-.382-.045,2.637,2.637,0,0,0-.382.009l-.255-.073a.2.2,0,0,0-.2.073.94.94,0,0,0-.127.218,1.613,1.613,0,0,0-.045.291.611.611,0,0,0,.009.2l-.055.8.273.637-.109.691.036,1.182-2.165.491-.382-.309.164-1.619-.109-1.219.164-1.128L51.79,4.227l.4-1.746Z" transform="translate(21.462 1.157)"/>
        <path id="패스_336" data-name="패스 336" d="M56.451,4.5q.382,0,.955-.027t1.137-.082q.564-.036,1.037-.082t.655-.082a.587.587,0,0,1,.418.009,1.306,1.306,0,0,1,.418.264,2,2,0,0,1,.364.455,2.5,2.5,0,0,1,.255.582,1.062,1.062,0,0,1,.064.528,1.216,1.216,0,0,1-.209.382L60.38,7.5l-.473.346-.255.455a.717.717,0,0,1-.3.191q-.155.045-.3.082a.748.748,0,0,0-.209.091q-.082.055-.064.218a.187.187,0,0,0,.146.164q.127.036.291.073.182.018.373.055a.956.956,0,0,1,.355.146l.709.018.455.582,1.473.6q.291.055.3.227a.563.563,0,0,1-.045.282l.018.164-.273.382-.618.564q-.091.164-.182.309a1.335,1.335,0,0,1-.182.236l-.782.164a.855.855,0,0,1-.382-.1q-.2-.1-.382-.209a1.626,1.626,0,0,1-.191-.136l-.209-.173q-.055-.073-.109-.155t-.109-.155a1.912,1.912,0,0,1-.218-.327q-.073-.091-.155-.182t-.155-.182q-.091-.091-.173-.182a1.748,1.748,0,0,1-.155-.2,2.34,2.34,0,0,0-.246-.246q-.118-.1-.191-.155a.335.335,0,0,0-.327.027.967.967,0,0,0-.273.246l-.164.246q-.055.082-.118.173a2.226,2.226,0,0,1-.191.227l-.382.409-.582.2a3.4,3.4,0,0,1-.382.564.319.319,0,0,1-.227.091,1.208,1.208,0,0,1-.382-.027,3.059,3.059,0,0,1-.446-.136,2.446,2.446,0,0,1-.437-.218.33.33,0,0,1-.146-.364,1.6,1.6,0,0,1,.109-.418,4.077,4.077,0,0,1,.227-.382,6.351,6.351,0,0,1,.409-.546q.509-.637,1.128-1.346.291-.346.573-.673t.518-.609q.236-.282.409-.491a1.942,1.942,0,0,0,.227-.318,3.16,3.16,0,0,0,.637-.282,1.4,1.4,0,0,0,.364-.291q.109-.136.055-.236t-.273-.1a3.136,3.136,0,0,0-.809.091,2.3,2.3,0,0,0-.555.218,1.928,1.928,0,0,0-.327.236.938.938,0,0,1-.418.164q-.327.073-.709.146-.4.073-.755.127a1.69,1.69,0,0,1-.427.036,1.478,1.478,0,0,0-.709-.746L54,5.042Zm3.22-2.674q.364.746-.091.928a2.007,2.007,0,0,0-.764.618l-.8.218a2.505,2.505,0,0,0-.582-.491q-.327-.2-.637-.382t-.564-.346a.856.856,0,0,1-.346-.382,2.1,2.1,0,0,1-.146-.309.577.577,0,0,1-.036-.164.071.071,0,0,1,.045-.073q.045-.018.118-.055L57.288.876Zm5.675.309.837-.073,1.055.273q.164.164.073.637l.055.364L67.384,4.9l.091,3.165-.364.782.218,1.437.109,2.419-.546.4-2.328.109.018-.673.146-.418.109-1.091.109-1.819q-.091-.8-.136-1.246t-.064-.537a1.687,1.687,0,0,1,.091-.564V4.532L64.71,2.986Z" transform="translate(27.733 0.452)"/>
        <path id="패스_337" data-name="패스 337" d="M73.91,9.013l-.036.036q-.018.055-.036.1t-.036.082h-.018l-.018.036a1.794,1.794,0,0,1-.236.118c-.146.068-.3.136-.473.209s-.367.176-.555.273a2.809,2.809,0,0,0-.464.291.313.313,0,0,0-.3.045.4.4,0,0,0-.155.3,2.139,2.139,0,0,1-.5.391,5.69,5.69,0,0,1-.555.246.306.306,0,0,1-.136.064.84.84,0,0,1-.118.009h-.109q-.036,0-.109.109Q70,11.4,70.2,11.6a.717.717,0,0,0,.291.164.73.73,0,0,0,.473-.164,3.254,3.254,0,0,0,.91.082q.6-.009,1.292-.064.691-.036,1.364-.1t1.146-.082l.564.164-.073,1.11-.546.564a2.582,2.582,0,0,1-.491.064q-.382.027-.946.064l-1.3.082q-.719.045-1.5.082h-.618l-.236-.255-.891.291q-.655.036-1.219.082t-1.019.064a6.647,6.647,0,0,1-1.182.055q-.164,0-.364.009a1.14,1.14,0,0,1-.382-.045.535.535,0,0,1-.291-.209.769.769,0,0,1-.091-.482l-.055-.746a.621.621,0,0,0,.273-.246,1.041,1.041,0,0,0,.146-.373l1.71-.218L69.581,9.2a3.257,3.257,0,0,0,.691,0,4.487,4.487,0,0,0,.518-.064.474.474,0,0,0,.318-.155c.024,0,.006-.029-.055-.091l-.164-.164q-.091-.091-.146-.136T70.654,8.5l-1.219-.418q-.055,0-.218.009t-.382.009h-.709a1.326,1.326,0,0,1-.218-.018h-.182a.473.473,0,0,1-.146-.018q-.091-.018-.182-.027t-.182-.027a.761.761,0,0,0-.446-.1.989.989,0,0,0-.446.1,2.9,2.9,0,0,1-.455-.2,1.169,1.169,0,0,1-.346-.2,2.367,2.367,0,0,1-.064-.455c-.018-.229-.027-.467-.027-.709a3.451,3.451,0,0,1-.018-.346V5.793c0-.1-.033-.384-.1-.864s-.167-1.155-.3-2.028l.637-.746,8.822-.546c.194-.036.327.135.4.509a4.184,4.184,0,0,1-.146,1.637l-.8.255a.74.74,0,0,0-.546-.218l-.673.255q-.327,0-.637-.018c-.206-.011-.418-.024-.637-.036a5.229,5.229,0,0,0-1.364.109q-.146,0-.291-.009t-.291-.009a1.038,1.038,0,0,0-.637.236,1.865,1.865,0,0,0-.355-.1,3.881,3.881,0,0,0-.464-.064c-.146-.011-.273-.021-.382-.027l-.146-.009a.329.329,0,0,0-.309.309q-.036.273.2.273a.37.37,0,0,1,.273.109,7,7,0,0,1,.618,1.583l2.474.2c.291.05.555.088.791.118s.452.059.646.082q.582.091,1.137.191a5.586,5.586,0,0,1,.809.191,1.539,1.539,0,0,1,.073.582,3.258,3.258,0,0,1-.091.6,5.1,5.1,0,0,1-.182.528,1,1,0,0,1-.055.127Z" transform="translate(33.54 0.828)"/>
        <path id="패스_338" data-name="패스 338" d="M82.118,8.6l.437-.382L85.5,7.834l1.855-.564,2.91.036.018,1.2-1.255.637-1.473.218-1.073.418a.607.607,0,0,0-.164.045.428.428,0,0,0-.109.082.545.545,0,0,0-.109.1.8.8,0,0,1-.127.118v.528l-.327.655-.491.728a1.662,1.662,0,0,1-.691.327,3.678,3.678,0,0,1-.655.109l-1.182,1.764a.671.671,0,0,0,.409.109,4.927,4.927,0,0,0,.573-.036q.327-.036.655-.091t.618-.091l1.6-.164a1.117,1.117,0,0,0,.482-.136.749.749,0,0,0,.318-.373l1.492-.109.618,1.11-.164.509-1.855.582a5.642,5.642,0,0,0-.791.146q-.337.091-.628.182t-.555.2a3.964,3.964,0,0,1-.555.182l-3.729.273-1-.437.236-1.073a2.218,2.218,0,0,0,.446-.573q.064-.173-.155-.282l.2-1.455,2.31-.946.346-1.255q.509.036.546-.155t-.2-.355a.972.972,0,0,0-.591-.2.744.744,0,0,0-.646.346l-3.675.673-.819-.327-.309-.546,1-1.583,1.273.2ZM80.481,7.161l-.6-2.838-.728-1.4V2.267l.709-1.11h.746l.637.8.673-.036,2.619-.6,2.2-.709,1.855.455-.036,1.619-.673,1.946.928.273-.036.8-.946.819-3.947.746-1.6.073-1.2.309Zm5.585-4.4-2.747.491-1.128.709.164,1.764h.437l1.819-.455.928-.055.382-.382Z" transform="translate(40.139 0.316)"/>
        <path id="패스_339" data-name="패스 339" d="M103.221,7.176l.146.6a.733.733,0,0,0-.218.437l.036.8-1.473.182A1.412,1.412,0,0,0,101.238,9a2.5,2.5,0,0,0-.473-.045q-.236,0-.473.009a1.611,1.611,0,0,1-.455-.045l-.073-.109-.036.364.327,4.42-.855.146-.709.146-.91-.182.218-1.182-.182-1.71-1.619,1-.746.637-6.294.964-.928-.382-.218-.855.273-.837,1.892-.055.8.036A.864.864,0,0,0,91,11.142a.485.485,0,0,0,.109-.327l.346-.728h-.364a5.564,5.564,0,0,1-1.364-.109,1.718,1.718,0,0,1-1.091-.655l-.164-.637a1.185,1.185,0,0,1,.045-.427A2.7,2.7,0,0,1,88.76,7.7l.873-1.419q.127-.109.273-.255a3.414,3.414,0,0,1,.364-.309,3.654,3.654,0,0,1,.509-.3,5.194,5.194,0,0,1,.782-.3.174.174,0,0,0-.027-.136.641.641,0,0,0-.227-.191,1.875,1.875,0,0,0-1,.4,3.1,3.1,0,0,0-1.073.2q-.236.073-.437.146a1.9,1.9,0,0,1-.309.091,1.777,1.777,0,0,1-.755.045.271.271,0,0,1-.227-.337l.164-1.455L88,3.52l3.693-.582a2.11,2.11,0,0,1,.464.018q.282.036.518.091.2.055.364.109a.319.319,0,0,0,.091.036l.164-.018q.127-.018.282-.027a2.464,2.464,0,0,0,.337-.045q.364-.055.746-.136a1.551,1.551,0,0,0,.582-.227l1.2,1-.164.364a2.811,2.811,0,0,1-.91.491,4.473,4.473,0,0,1-.8.164q-.382.036-.664.073a.623.623,0,0,0-.427.218q-.109.182.146.273a4.263,4.263,0,0,0,.473.2q.255.091.491.2A4.908,4.908,0,0,1,95.072,6a2.852,2.852,0,0,1,.455.373,2.32,2.32,0,0,0,.073.482q.055.191.091.355a1.879,1.879,0,0,1,.009.318,1.277,1.277,0,0,1-.082.355,1.59,1.59,0,0,1-.4.437,5.656,5.656,0,0,1-.618.437l-.291.182-.382.709-.309.8-.382-.018-.091.309.346.109.528-.036,3.747-1.128-.273-.327.091-4.038.164-.382L97.582,4.5l.127-.582.055-.346.036-.746q0-.127.255-.146.164,0,.437.009T99.2,2.7a.719.719,0,0,1,.4.109,1.242,1.242,0,0,1,.091.1,1.239,1.239,0,0,0,.091.1l.528.655-.218,1.273-.2,2.31,2.219-.146a.422.422,0,0,0,.173.055.372.372,0,0,0,.118-.018.546.546,0,0,0,.109-.1q.055-.064.146-.155ZM93.6,1.556,93.18,2.611l-1.091.018-.764-.255L90.36.864l.073-.6L92.416.5l.728.073Zm-1.382,4.93a4.876,4.876,0,0,0-.427.355q-.227.209-.427.409a2.553,2.553,0,0,0-.355.391.822.822,0,0,0-.155.3.35.35,0,0,0,.055.437.78.78,0,0,0,.546.173q.382.009.655-.009.182-.127.437-.282t.473-.3a1.378,1.378,0,0,0,.564-.473q.018-.146.027-.191a.384.384,0,0,0,.009-.064l-.055-.055-.109-.146a1.78,1.78,0,0,0-.373-.373.786.786,0,0,0-.391-.209Z" transform="translate(45.14 0.136)"/>
        <path id="패스_340" data-name="패스 340" d="M101.935,4.535q.055.018.064-.082t.027-.246a1.022,1.022,0,0,1,.036-.264.35.35,0,0,1,.146-.209,1.465,1.465,0,0,1,1.692.018l1.037.855a1.436,1.436,0,0,1,.264.637,5.681,5.681,0,0,1,.118,1.037,10.753,10.753,0,0,1,.009,1.173,10.186,10.186,0,0,1-.1,1.082,2.313,2.313,0,0,1-.209.427,1.321,1.321,0,0,1-.427.464l-2.419,1.437a3.287,3.287,0,0,1-.991.118,3.96,3.96,0,0,1-.991-.227,1.548,1.548,0,0,1-.855-.273,1.175,1.175,0,0,1-.528-.728A1.923,1.923,0,0,1,98.57,9a1.854,1.854,0,0,1,.073-.737l1.364-3.129q.073-.073.136-.146t.136-.164q.091-.073.209-.173t.3-.246Zm.2,1.11q-.509.782-.773,1.2a3.385,3.385,0,0,0-.282.491q-.018.073-.036.136t-.036.155q-.036.164-.064.346a.972.972,0,0,0-.009.291,1.753,1.753,0,0,0,.009.191,1.17,1.17,0,0,0,.027.155q.018.127.236.236a.542.542,0,0,0,.309.073q.055,0,.146-.009a1.1,1.1,0,0,1,.236.009,2.354,2.354,0,0,0,.582-.055.7.7,0,0,0,.528-.4.951.951,0,0,0,0-.582q-.036-.109-.064-.218a.429.429,0,0,1,.027-.255l-.073-.528a.993.993,0,0,0,.164-.164,1.2,1.2,0,0,0,.164-.236.676.676,0,0,0,.036-.291.62.62,0,0,0-.091-.364.554.554,0,0,0-.236-.164,1.279,1.279,0,0,0-.309-.073,1.7,1.7,0,0,0-.3-.009.3.3,0,0,0-.191.064m4.966,2.11.364-.146.655-.327.291.091q.255.255.418.246a.356.356,0,0,0,.273-.155.789.789,0,0,0,.127-.3,1.392,1.392,0,0,0,.036-.264,2.015,2.015,0,0,1,.027-.255q.027-.182.045-.418a3.745,3.745,0,0,0,.009-.455,1.686,1.686,0,0,0-.064-.418,4.284,4.284,0,0,0,.337-.782,1.535,1.535,0,0,0,.064-.709q.036-.146.1-.337a3.355,3.355,0,0,1,.155-.382,2.64,2.64,0,0,1,.182-.327.435.435,0,0,1,.182-.173,1.206,1.206,0,0,1,.455-.055,5.611,5.611,0,0,1,.655.036q.291.055.318.264a2.007,2.007,0,0,1,.009.427V5.463l-.146,2.547-.182.709.182,1.437-.055,1.4-.2.4-1.655.273-.564-.364a9.683,9.683,0,0,0,0-1.473q-.018-.255-.036-.482t-.036-.464q-.055-.437-.418-.473l-.509.655-1.655.473-1.091-.491a2.013,2.013,0,0,0,.346-.719,1.977,1.977,0,0,0,.036-.755ZM108.72,4.1a2.088,2.088,0,0,0,.045.573,1.017,1.017,0,0,0,.282.518l-.055.418-.528.146-.291-.055-.982.036-.127.346a.582.582,0,0,1-.437.018.506.506,0,0,1-.346-.218l-.164-.928a.731.731,0,0,1-.064-.609.416.416,0,0,1,.427-.337l1.492-.036Zm4.038-.309-.182-1.528q0-.127.236-.2a2.327,2.327,0,0,1,.546-.091,3.4,3.4,0,0,1,.609.018,1.423,1.423,0,0,1,.409.091.608.608,0,0,1,.218.227,3.072,3.072,0,0,1,.182.373q.073.218.136.482t.155.537l-.091,2.11-.236.873.327,1.619-.127,3.274a1.584,1.584,0,0,1,.091.555.432.432,0,0,1-.146.3.754.754,0,0,1-.337.155q-.209.045-.464.082a6.027,6.027,0,0,1-.637.073.553.553,0,0,1-.4-.073,1.143,1.143,0,0,1-.364-.409,1.258,1.258,0,0,1-.164-.518q-.018-.127-.027-.664t-.009-1.155q0-.618.018-1.146a2.472,2.472,0,0,1,.073-.655,1.63,1.63,0,0,0,.091-.582,2.964,2.964,0,0,0,.018-.327A2.5,2.5,0,0,1,112.7,6.9Z" transform="translate(50.846 1.013)"/>
        <path id="패스_341" data-name="패스 341" d="M116.456.1a.288.288,0,0,1,.318.164.6.6,0,0,1,.027.4l-.218.618a.991.991,0,0,1-.236.364q-.091.109-.209.255a2.467,2.467,0,0,0-.246.382l-1.091.764.036.2q.473-.073,1-.164t1.037-.182q.491-.091.937-.164t.773-.109l4.166,1.346L122.241,5.1a6.7,6.7,0,0,0-.682.118,4.366,4.366,0,0,0-.464.136q-.2.055-.391.1a1.48,1.48,0,0,1-.446.027l-1.11-.036-.291-.291-1.528-.346A1.1,1.1,0,0,1,117,4.717q-.164-.073-.327-.127-.164-.073-.327-.127a1.03,1.03,0,0,0-.327-.055,1.907,1.907,0,0,1-.528,0q-.164,0-.327-.009t-.309-.009q-.036,0-.173.146t-.318.346q-.2.2-.446.409a2.792,2.792,0,0,1-.482.337l-.073.2-.418.127-.273.437L111.8,7.409l-1.4-.273L111.654,4.1l2.274-2.874.691-.891Zm-2.219,7.313a1.043,1.043,0,0,0,.409-.009,4.736,4.736,0,0,0,.464-.118l.464-.146a2.021,2.021,0,0,1,.409-.091l3.238-.255,3.238-.618a.642.642,0,0,1,.364.109q.164.073.2.91-.036.127-.346.346T122,7.973l-.337.2q-.155.091-.3.182a4.858,4.858,0,0,1-1.182.273,1.439,1.439,0,0,1-.264.018q-.173,0-.355.018-.2.018-.364.045a.558.558,0,0,0-.236.082l-.746.819-.8.309.182-.036,2.51.218.182,1.419-.236,1.655-4.893,1.255a.413.413,0,0,0-.227.136.759.759,0,0,0-.127.227,1.288,1.288,0,0,0-.064.264,1.878,1.878,0,0,0-.018.246l.837-.036q.2-.018.418-.018h.418l.791-.036q.391-.018.773-.073a1.735,1.735,0,0,0,.427-.091q.209-.073.391-.146a2.532,2.532,0,0,0,.346-.118.652.652,0,0,1,.255-.064,2.969,2.969,0,0,0,.418-.055q.309-.055.691-.146t.773-.191q.391-.1.682-.191l.273,1.091V15.7q0,.146-.637.4-.309.127-.655.236t-.709.218a1.549,1.549,0,0,1-.373.064,3.142,3.142,0,0,1-.409-.009q-.4-.018-.837,0a3.38,3.38,0,0,1-.555.064q-.282.009-.555.027-.291.018-.582.027t-.582.045l-3.856.146-.346-1.128a.2.2,0,0,1-.027-.136q.009-.082.027-.173a1.315,1.315,0,0,1,.055-.191q.036-.1.073-.209a1,1,0,0,0,.036-.218v-.2a1.168,1.168,0,0,1,.018-.209.591.591,0,0,1,.109-.227,2.063,2.063,0,0,0,.518-.273.572.572,0,0,0,.191-.236.432.432,0,0,0,.064-.164.139.139,0,0,1,.1-.109l4.093-1.11-.018-.4L117,11.775l-2.019.2-1.255.455-.418-.018-.127-1.473.964-.455.764-.127.891-1.019q.509.036.628-.146a.274.274,0,0,0-.009-.346.5.5,0,0,0-.391-.191q-.282-.027-.555.337l-3.6.837-1.292-.255a2.246,2.246,0,0,1-.127-.691,3.226,3.226,0,0,1-.009-.409,2.615,2.615,0,0,1,.027-.282.492.492,0,0,1,.182-.309.6.6,0,0,1,.327-.164Z" transform="translate(56.953 0.049)"/>
        <path id="패스_342" data-name="패스 342" d="M123.2,5.453l.855-.528a.824.824,0,0,0,.218-.273.231.231,0,0,0-.055-.255l-.528-.091-3.347.418-.418-.91-.073-1.164,2.638-.473,2.783-.091,2.328.6.182.91-.964,1.164-.509.309a1.869,1.869,0,0,1-.518.591,2.432,2.432,0,0,1-.373.191,2.8,2.8,0,0,0-.382.427,1.6,1.6,0,0,0-.236.464l2.656.309a1.933,1.933,0,0,1,.327.146q.164.091.327.2a2.98,2.98,0,0,1,.318.246,2.978,2.978,0,0,0,.318.246l-.873,1.182-.946-.018a.869.869,0,0,0-.373.109.927.927,0,0,0-.246.2l-1.019-.309-.2-.291a1.225,1.225,0,0,1-.191-.2q-.1-.127-.191-.255a2.489,2.489,0,0,0-.182-.227.6.6,0,0,0-.164-.136l-.437-.4-.618.964-.291.946-.819,1-1.164.255-.855-.637.055-.891.946-1.31.509-.982Zm6.949,4.966q.218.055.145.282a.563.563,0,0,1-.273.337l-.546.8-.855.855a1.934,1.934,0,0,0,.146.327q.091.164.2.164l.982.055.764-.218h.418l1.2-.528.582.018,1.091-.346a1.105,1.105,0,0,1,.428-.055.788.788,0,0,1,.318.091.626.626,0,0,1,.2.173,1.276,1.276,0,0,1,.109.173q.164.673.218,1.073a4.911,4.911,0,0,1,.055.546.555.555,0,0,1-.127.182,2.149,2.149,0,0,1-.209.182q-.118.091-.227.164a.8.8,0,0,1-.164.091l-3.984.182-2.328.418-1.546.091-.964-.146a1.514,1.514,0,0,1-.246-.573,3.15,3.15,0,0,1-.027-.955l.582-.928.146-.473,1-.291-.2-.327,1.419-.728,1.091-.6Zm3.584-3.238-.382.582-.382,1.292-.491.182-.382.073-1,.564-.382-.218V9.237l.055-.327.109-.491.091-.291-.091-.491.073-.437-.073-1.983.018-.364.164-.437-.146-1.055.109-.564-.055-.437.036-.418a.633.633,0,0,1,.145-.437.463.463,0,0,1,.455-.109l1.546.291a.676.676,0,0,1,.537.391,1.27,1.27,0,0,1,.064.664L133.534,5.6Z" transform="translate(61.831 0.713)"/>
        <path id="패스_343" data-name="패스 343" d="M134.182,9.6q-.036,0-.045-.018a.143.143,0,0,0-.027-.036q-.036-.018-.055-.109a.334.334,0,0,0-.064-.082q-.045-.045-.045-.064l4.329-.309,4.166-.473.946.073.546.873-.018.473-.873.291-5.093.291L134,11.333l-.91-.182a1.536,1.536,0,0,0-.273-.1,2.081,2.081,0,0,0-.327-.064q-.091,0-.182.009t-.164.009h-.291a.541.541,0,0,1-.346-.045.24.24,0,0,1-.073-.191q0-.055.027-.255t.082-.473q.018-.109.045-.218t.045-.2a.416.416,0,0,1,.091-.255h.8q.109,0,.218-.009T133,9.332a.334.334,0,0,0-.182.364q0,.091.073.091.018.018.073.009a.719.719,0,0,0,.109-.027h.237a.858.858,0,0,1,.364.109Zm3.02-7.549-.055.055.6-.055.955.073q.464.036.864.064t.682.064l.427.055.473.273.073.455-.528.382a2.621,2.621,0,0,1-.3.127q-.155.055-.318.109t-.337.1q-.173.045-.337.082a5.83,5.83,0,0,0-.573.155q-.246.082-.191.136,0,.109.146.146a1.53,1.53,0,0,0,.364.036q.2.018.409.018a1.177,1.177,0,0,0,.373-.055.939.939,0,0,1,.646.109,1.126,1.126,0,0,1,.391.382,1.7,1.7,0,0,1,.155.646.932.932,0,0,1-.191.591q-.218.273-.509.582t-.6.582q-.328.273-.609.491a1.708,1.708,0,0,1-.446.273,9.258,9.258,0,0,1-1.11.309,9.846,9.846,0,0,1-1.473.2,4.389,4.389,0,0,1-.491.073q-.218.018-.382.018A1.271,1.271,0,0,1,135,8.5a.54.54,0,0,1-.255-.146l-.8-.618a.721.721,0,0,1-.055-.364,1.169,1.169,0,0,1,.182-.473L134.855,5q.127-.073.246-.146t.227-.127l.164-.1q.073-.045.146-.082a.728.728,0,0,0,.327-.309l.382-.309.582-.146.018-.127-.782-.127-.637.182q-.327,0-.691.036t-.691.091a3.686,3.686,0,0,1-.637.109l-.236.036a1.1,1.1,0,0,1-.164.018,3.128,3.128,0,0,1-.837.027q-.291-.045-.236-.264l.273-.964.437-.309,3.129-.273a.233.233,0,0,1-.146-.091L134.2,1.073l-.073-.382.528-.418L135.783,0l1.583,1.455Zm1.4,9.4-.018.146a1.505,1.505,0,0,0-.018.273.672.672,0,0,0,.082.318.427.427,0,0,0,.282.209,2.366,2.366,0,0,1,.573-.182,4.751,4.751,0,0,1,.719-.091,3.243,3.243,0,0,1,.655.064,1,1,0,0,1,.437.173l.473.709a2.119,2.119,0,0,1,0,.555q-.036.3-.091.555-.018.164-.036.3t-.036.227a1.7,1.7,0,0,1-.009.2.181.181,0,0,0,.027.127,1.658,1.658,0,0,0-.255.236.94.94,0,0,0-.1.118.391.391,0,0,1-.1.1,1.767,1.767,0,0,1-.291.327,3.219,3.219,0,0,1-.528.364l-3.383.928a3.043,3.043,0,0,1-.637-.091q-.2-.055-.4-.1t-.418-.118a1.362,1.362,0,0,1-.382-.155,1.559,1.559,0,0,1-.291-.227,1.087,1.087,0,0,1-.146-.109l-.127-.127q-.073-.055-.136-.109a.794.794,0,0,1-.118-.127,2.34,2.34,0,0,1-.246-.182.233.233,0,0,1-.082-.182.123.123,0,0,1-.036-.091v-.273a1.021,1.021,0,0,1,.018-.2,1.9,1.9,0,0,1,.091-.646,1.663,1.663,0,0,1,.4-.555.362.362,0,0,0,.427.045.514.514,0,0,0,.282-.337l.109-.473a.626.626,0,0,0,.218-.218l.145-.236a1,1,0,0,1,.091-.2.352.352,0,0,0,.045-.064.263.263,0,0,1,.082-.082,3.735,3.735,0,0,0,.564-.582q.237-.127.4-.2l.291-.127a.253.253,0,0,1,.109-.018h.455Zm-1.51-6.021a1.092,1.092,0,0,0-.236.236,1.362,1.362,0,0,0-.146.255,1.332,1.332,0,0,0-.109.236q-.036.109-.055.182-.073.109-.2.318t-.018.264a.352.352,0,0,0,.264.055,2.876,2.876,0,0,0,.391-.073,1.178,1.178,0,0,0,.209-.055q.1-.036.209-.073a.323.323,0,0,1,.091-.027.323.323,0,0,0,.091-.027l.182-.073a2.864,2.864,0,0,0,.737-.246,1.3,1.3,0,0,0,.355-.264.51.51,0,0,1,.009-.1.421.421,0,0,0,.009-.082.578.578,0,0,0,.036-.164.45.45,0,0,1-.055-.127.383.383,0,0,1-.109-.164.937.937,0,0,0-.427-.136q-.264-.027-.409-.027Zm1.637,7.8q0-.055.036-.064t-.018-.009a2.365,2.365,0,0,1-.746.182L136.583,14.7a.315.315,0,0,0,.018.273.534.534,0,0,0,.236.255q.091.346.6.346l1.874-.473a.882.882,0,0,0,.246-.209.735.735,0,0,0,.173-.3,1.276,1.276,0,0,0-.127-.491,1,1,0,0,1-.073-.082q-.036-.045-.073-.1a.834.834,0,0,1-.027-.1.513.513,0,0,1-.009-.1.223.223,0,0,0-.091-.155,1.438,1.438,0,0,0-.209-.155,1.643,1.643,0,0,0-.227-.118.48.48,0,0,0-.164-.045" transform="translate(67.805 0)"/>
        <path id="패스_344" data-name="패스 344" d="M146.869,10.1l-.018,1.51-.346,1.219-2.056-.073-.309-1.182.309-1.364-.255-.6.091-.491-2.874.491-.473-.309.182-1.637,2.838-.582.819.127,1.364-.327,2.528-.582,1.91-.109,1.346.418a.8.8,0,0,1-.082.2.617.617,0,0,0-.064.127.988.988,0,0,0,.018.173.777.777,0,0,0,.127.264L149,8.35l-1.71.091a.723.723,0,0,0-.418.382.376.376,0,0,0,.027.273.541.541,0,0,0,.318.218Zm-1.728-9.077q.055.018.064-.064t.027-.191a.412.412,0,0,1,.2-.4,1.722,1.722,0,0,1,1.728.018l1.437.855a8.339,8.339,0,0,1,.227,1.519c.042.6.068,1.173.082,1.719q0,.109-.2.309-.218.2-.437.437l-2.492,1.2a5.015,5.015,0,0,1-1.191.073,8.623,8.623,0,0,1-1.191-.164,1.368,1.368,0,0,1-.719-.446,2.816,2.816,0,0,1-.482-.719,1.32,1.32,0,0,1-.109-.755,2.014,2.014,0,0,1,.2-.682l.891-2.056a.5.5,0,0,0,.127-.146.957.957,0,0,1,.146-.182l.2-.2a1.64,1.64,0,0,1,.327-.236Zm.764.91q-1.037,1.31-1.146,1.419a.724.724,0,0,1-.091.109,1.187,1.187,0,0,0-.109.127q-.091.127-.182.282a.369.369,0,0,0-.073.246,1.286,1.286,0,0,0,.009.173.676.676,0,0,0,.027.118c.011.061.1.121.255.182a.384.384,0,0,0,.218.082,1.4,1.4,0,0,0,.273-.009h.6a.641.641,0,0,0,.218,0,1.667,1.667,0,0,0,.291-.064,1.3,1.3,0,0,0,.282-.127.642.642,0,0,0,.209-.191.778.778,0,0,0,.1-.273.718.718,0,0,0-.009-.2q-.018-.109-.036-.2a.31.31,0,0,1,.036-.2l-.073-.437a.616.616,0,0,0,.173-.127.956.956,0,0,0,.173-.2,1.083,1.083,0,0,0,.018-.246.536.536,0,0,0-.073-.3,1,1,0,0,0-.582-.2,1.36,1.36,0,0,0-.509.036m6.112,9.514c.146.036.193.13.146.282a.568.568,0,0,1-.273.337l-.91.982-.673.873a.528.528,0,0,0,.036.164.211.211,0,0,0,.036.146c0,.109.029.164.091.164l.982.055.764-.218h.418l1.2-.528.582.018,1.091-.346a1.1,1.1,0,0,1,.427-.055.8.8,0,0,1,.318.091.626.626,0,0,1,.2.173,1.253,1.253,0,0,1,.108.173c.109.449.183.806.22,1.073a5.468,5.468,0,0,1,.056.546.631.631,0,0,1-.129.182,2.155,2.155,0,0,1-.209.182c-.08.061-.155.115-.227.164a.8.8,0,0,1-.164.091l-3.984.182-2.328.418-1.546.091-.964-.146a1.515,1.515,0,0,1-.246-.573,3.149,3.149,0,0,1-.027-.955l.582-.928.218-.218.8-.491.491-.491.782-.91,1.346-.564Zm3.729-7.986-.329,1.764.038,2.31-.364,1.8L154.8,10.46l-1.255.273-.546.455-.455-.127-.055-1.328-3.511.673-.309-1.419,1.2-.291.309-.327,2.874-.8-.2-.182.182-1.855.073-3.565,2.309-.273Z" transform="translate(72.708 0.073)"/>
      </g>
    </g>
    <g id="그룹_283" data-name="그룹 283" transform="translate(1043 21.183)">
      <g id="그룹_282" data-name="그룹 282" transform="translate(0 0)" clip-path="url(#clip-path-2)">
        <path id="패스_391" data-name="패스 391" d="M90.876.056a.214.214,0,0,0-.094-.05c-.148-.031-.289.076-.512.245L90.1.383C89.5.7,89.043,2.2,88.939,2.816c-.016.013-.028.013-.059.037a2.612,2.612,0,0,0-1.745-1.32c.277,1.063,1.213,4.276,2.461,4,.632-.138,1.956-2.8,1.968-4.276V1.2C91.555.427,91.2.15,90.876.056" transform="translate(-59.007 0)" fill="#ed6b00"/>
        <path id="패스_392" data-name="패스 392" d="M115.9,50.849a10.306,10.306,0,0,0-3.618.478,1.343,1.343,0,0,0-.569.409c.022.321-.173.836.132.956.016,0,.016.05.028.076.085.088.179.1.267.214.06.081.107-.006.17.025.028.031.041.081.072.087.151.069.286.044.437.107.072.069.154.056.226.069.047-.019.1.088.119.113a1.876,1.876,0,0,0,.836.006c.868-.013.7-.094,1.569-.113.732-.006,1.443.1,2.172.095.393-.019.827,0,1.22-.032.7-.037,1.4.069,2.1.076.349-.006.757.132,1.109.157a5.17,5.17,0,0,1,1.122-.019,1.051,1.051,0,0,1,.368.044.869.869,0,0,0,.346.126,2.261,2.261,0,0,0,.956-.226,2.036,2.036,0,0,0,.569-.2.514.514,0,0,0,.208-.327,1.359,1.359,0,0,0,.066-.849c-.015,0-.063.026-.078,0-.031-.05-.025-.17-.069-.176a2.9,2.9,0,0,0-.421-.1c-.186-.044-.374-.126-.557-.164a47.627,47.627,0,0,0-8.781-.83" transform="translate(-75.626 -34.425)" fill="#00905f"/>
        <path id="패스_393" data-name="패스 393" d="M25.141,51.3c.157.038.336.032.421.138.088.082-.085.214-.072.321,0,.258.094.5.091.748a.163.163,0,0,1-.063.132.734.734,0,0,1-.192.176c-.217.138-.509.088-.754.157a5.557,5.557,0,0,1-1.009.17,13.326,13.326,0,0,1-1.8-.082,1.715,1.715,0,0,0-.679.094,2.936,2.936,0,0,1-.843.05c-1.468-.05-2.9-.087-4.36-.075-.255.013-.535.044-.789.056-1.172.063-2.345.044-3.515.076-.409.006-.817.019-1.232.013-.223,0-.456.006-.66.013-.864.044-1.761.082-2.628.044-.333.013-.685.013-1.022.013a26.733,26.733,0,0,1-2.927.157,4.949,4.949,0,0,1-2.053-.541A2.773,2.773,0,0,1,0,52.023a1.193,1.193,0,0,1,.7-.371c.648-.176,1.258-.29,1.918-.4.553-.095,1.062-.139,1.6-.189a131.2,131.2,0,0,1,17.942-.182,19.475,19.475,0,0,1,2.98.421" transform="translate(0 -34.303)" fill="#0061b1"/>
        <path id="패스_394" data-name="패스 394" d="M117.581,27.189V26.95c-.135-.208-.094-.442-.264-.643a2.259,2.259,0,0,0-.135-.566c0-.082-.044-.2.041-.277-.085-.163-.041-.365-.085-.522.132-.126.044-.327-.047-.446a.138.138,0,0,0,.047-.12,1.211,1.211,0,0,1-.132-.364c-.047-.12-.217-.082-.217-.195a2.28,2.28,0,0,0-.742-.044c-.05-.037-.088-.037-.088-.126h-.223a.719.719,0,0,0-.484-.277v.082c-.038.082-.1.082-.173.082-.063.082-.163.163-.132.321,0,.037-.032.037-.063.037a1.748,1.748,0,0,1-.035.4,7.609,7.609,0,0,0-.336,1.126.241.241,0,0,0-.1.2c-.17.2-.333.4-.5.6a.35.35,0,0,0-.3.208h-.066a.364.364,0,0,1-.3.157c0,.083-.094,0-.094.083h-.406c-.129-.128-.251-.159-.314-.322v-.082a1,1,0,0,1-.126-.44c-.094-.2-.066-.44-.157-.641.035-.119-.032-.239.035-.327,0-.075-.094-.157-.066-.239-.028,0-.063,0-.063-.038a.643.643,0,0,0-.063-.359c-.032,0-.06,0-.06-.044v-.082h-.063c-.063-.119-.019-.195-.066-.289a.983.983,0,0,0-.386-.132.61.61,0,0,0-.409.157l.032.05a1.738,1.738,0,0,0-.3.453c-.044.044-.126.082-.126.164.044,0,.044.044.044.082-.129.076-.085.2-.17.276l.041.044c-.041.119-.123.239-.167.358a1,1,0,0,1-.082.484c0,.044,0,.082.041.082a1.094,1.094,0,0,0-.041.522.138.138,0,0,0-.044.119c.085.159-.066.3-.022.473a.74.74,0,0,1,.088.333.984.984,0,0,0,.088.088c.044.252.173.459.217.717.041,0,.085,0,.085.044l-.044.044c.132.075.091.163.091.3a.192.192,0,0,0,.129.031c.088,0,0,.132.088.132a6.238,6.238,0,0,1,.874.465c.129.044.261-.044.352.044l.041-.044c.044,0,.088,0,.088.044.088-.088.217,0,.305.044a1.518,1.518,0,0,1,.4-.087c.069-.17.249-.2.314-.353.283-.151.409-.5.641-.717v-.075c.069-.032.1-.139.17-.176,0-.113.1-.182.135-.289l.031.038c.031-.189.2-.333.236-.516.032-.032.032-.069.095-.069a2.424,2.424,0,0,1,.173.182c-.038.031.066.069.032.107.132.107.167.327.267.465a1.2,1.2,0,0,0,.1.333c0,.031,0,.069-.031.069a1.576,1.576,0,0,1,.167.692c.1.038.088.095.123.176a.322.322,0,0,0,.355-.163c.041,0,.041.044.041.082a.236.236,0,0,0,.179-.082l.044.044c.088-.082.386,0,.475-.044a.37.37,0,0,1,.223-.076c.085,0,0-.125.085-.125.044,0,.085-.082.176-.038.088-.12.22-.2.305-.321,0,.038.047.038.091.038V28.2c.041-.044.088-.082.135-.126a4.815,4.815,0,0,0,.088-.761c-.088,0,0-.119-.088-.119" transform="translate(-74.633 -15.827)" fill="#1a1412"/>
        <path id="패스_395" data-name="패스 395" d="M91.985,49.136l.066-.006c-.038-.006-.066-.038-.066.006" transform="translate(-62.291 -33.259)" fill="#1a1412"/>
        <path id="패스_396" data-name="패스 396" d="M77.331,25.7a.619.619,0,0,0-.123-.094c.044-.126-.028-.289.069-.415-.208-.371-.145-.893-.459-1.194-.01-.057-.013-.119-.019-.17a13.7,13.7,0,0,0-.8-1.213c-.107.069-.126-.1-.192-.151a.191.191,0,0,1-.167-.038l-.05.063-.063-.044c0,.056-.054.063-.113.069a.277.277,0,0,0-.23-.088c-.06.006-.066-.05-.069-.107-.166.025-.239-.082-.4-.063-.06.006-.063-.05-.069-.107-.226.032-.4.057-.619.082.006.05.076.163-.031.232-.126-.1-.233-.031-.346-.019-.035.182-.2.258-.129.421,0,.05-.05.063-.107.069.082.22-.013.453.123.667.094.333.17,1.182.27,1.094a3.877,3.877,0,0,0,.186.729c0,.057.135.107.085.17a.666.666,0,0,1,.006.082c-.006,0,0,.006-.006.013-.132.025-.192.178-.28.2-.013-.038-.054-.025-.1-.019-.037.05-.128.069-.151.163-.135.031-.173.164-.251.258l-.05-.038c-.163.151-.4.139-.506.315-.261.126-.484.169-.754.271-.044,0-.091.006-.095-.038-.044.082-.23.019-.27.1a4.732,4.732,0,0,0-.783.056c0-.082-.135.006-.141-.075-.223.094-.459-.038-.685-.038-.047-.031-.138-.031-.189-.12a.533.533,0,0,1-.5-.119c-.135,0-.23-.12-.364-.17v-.076a1.073,1.073,0,0,1-.095-.082c0-.119.138-.119.23-.163.095-.126.34-.095.434-.214,0-.044.123-.126.123-.165.044-.088.078-.163.123-.163.141-.076.047-.17.236-.214,0-.044.145-.145.095-.183.189-.119.182-.195.229-.44a.772.772,0,0,0,.227-.421c.047-.038-.01-.214.081-.258.047-.283-.072-.44-.072-.723a.723.723,0,0,1-.091-.082c0-.119-.091-.208-.047-.327-.135-.119-.107-.163-.242-.283l-.082-.088H70c-.047-.082-.189-.119-.189-.2a3.911,3.911,0,0,1-.547-.245l-.047.038-.044-.038-.095.076c0-.119-.135,0-.182-.076-.094,0-.185-.044-.28.038-.273-.082-.572.063-.849-.057,0,.076-.182-.044-.182.076-.094.044-.226.044-.273.082H67.18a.735.735,0,0,1-.531.264c-.091,0,0,.126-.091.126h-.095a4.732,4.732,0,0,1-.689.61c0,.044-.091.082-.044.17,0,.038-.047.038-.094.038a.216.216,0,0,1-.091.163c0,.038,0,.082.044.082,0,.038-.072.145-.116.145-.044.163-.044.321-.182.409,0,.327-.1.484-.116.843a4.711,4.711,0,0,1,.047.648c.141.09-.035.083.06.209.047,0,.022.082.022.119.047.088.2.145.151.233,0,.044.078.082.129.082.047.087-.072.176.028.22,0,.044.15.013.1.094l.082.189a.869.869,0,0,1,.21.183.583.583,0,0,0,.186.2,1.092,1.092,0,0,1,.176.082l.054.113.135.126c.145.037.17-.044.283.107.05,0,.094,0,.094.044l.051-.044c.047.088.138.126.191.169a.511.511,0,0,1,.362.139c.053,0,.056.1.056.05.148.044.248.145.343.063.05,0,.1,0,.1.038l.044-.038c.1-.05.12.063.217.025.047,0,.047.038.047.082h.1c.1.087.506-.026.6.063a6.964,6.964,0,0,0,1.43-.056c0-.082.135.006.138-.076l.047.044c.182.05.371-.163.557-.076l.094-.075c.095-.038.226.132.321.019,0,.037.047.044.091.044a.745.745,0,0,0,0-.082c.145-.075.314-.056.424-.17a1.743,1.743,0,0,0,.182.019.683.683,0,0,0,.1-.069c.239-.056.447-.245.72-.308.041-.044.129-.056.167-.138a1.094,1.094,0,0,1,.141-.013c.041-.044.085-.088.123-.132.145.026.264-.169.4-.189-.006-.038-.013-.082.035-.088l.053.032c.085-.051.085-.051.116-.145.013.006.022-.013.035-.013a.634.634,0,0,1,.078.333c.047-.006.1-.013.11.044a.679.679,0,0,0-.094.12c.054-.006.057.05.063.1-.054.006-.047.057-.044.113.054-.006.06.05.066.1a1.04,1.04,0,0,0-.091.126c0,.056.054.044.11.037.057.1-.135.182-.025.22-.025.283.075.578-.073.811-.11-.057.016.3.013.195,0,.107-.066.472-.169.528v.107c.05,0-.057.1-.06.05l.054.05c-.047.169.022.151-.132.264,0,.051,0,.113,0,.163-.11.063,0,.245-.057.3l-.053-.044c-.05,0-.038.044-.038.1.047-.006.066.025.066.075-.1.12.179.113.063.214l-.11.006c.013.006.025.013.037,0-.1-.006.022.239-.135.176-.006.113-.189.27-.255.377.107-.05.091-.038.1.013.047.05-.085.107-.076.107-.006.025-.107.069-.145.107-.195.371-.1.132-.23.333-.056-.006-.113.176-.11.119.05.006-.038.044-.035-.006-.06.05-.06.05-.117.1.044.113.145.17-.025.27-.056-.006-.047-.056-.044-.107-.11.044-.117.151-.173.208-.006.057-.006.057-.012.1a2.2,2.2,0,0,1-.318.333.6.6,0,0,1-.107-.006.221.221,0,0,0-.069.157c0,.056-.054.05-.107.05s-.095.063-.091.006c-.053-.006-.031.088-.145.139l.038.081c-.113.044-.085.063-.185.057-.01.107-.242.107-.252.214.044.113.145.113.195.22l.2.019c.041.113-.16.025-.069.138.056.006.141.019.135.069l-.054.05c.05.006-.053.063-.006.119.053,0,.173.113.217.17l.06-.05c.05.057.11.044.11.1.1,0,.277.075.39-.025.054,0,.2-.1.195-.044.1.056.057-.1.17-.151l.33-.151c.412-.465,1.009-.654,1.421-1.119.079-.019.088-.019.123-.056l0-.069c.006-.05.063-.05.11-.05a.309.309,0,0,1,.129-.207c-.054-.006.167-.114.116-.17a1.711,1.711,0,0,1,.242-.264c.05-.006.05-.056.05-.113.1-.056.1-.056.154-.169a.572.572,0,0,1,.1-.006l-.053-.051c-.057-.107.1-.063.1-.169s.242-.157.185-.271c.1-.163.23-.22.333-.39-.056-.214.123-.34.274-.453,0-.05,0-.107-.05-.107.047-.113.1-.277.151-.39l-.057-.051c.1-.056.05-.163.047-.22.1-.119.154-.22.255-.34a.186.186,0,0,0-.057-.157,1.335,1.335,0,0,0,.1-.119.7.7,0,0,1,.267-.428l-.06-.05c.11-.12,0-.233-.066-.34,0-.056,0-.113.057-.113l.06.05.05-.056-.054-.057c.107-.176.013-.415.167-.553a.213.213,0,0,0-.069-.163c.157-.132-.028-.277.066-.4,0-.057-.009-.114-.06-.107l.05-.069-.063-.05.05-.063c-.057.006-.066-.05-.069-.1l.1-.126c.032-.3-.167-.554-.085-.851m-8.586-1.27a1.645,1.645,0,0,1-.739,1.17c-.044,0-.095,0-.095-.044,0-.082-.091-.214-.044-.3,0-.038-.047-.038-.094-.038.094-.094-.063-.176-.016-.308-.047,0-.047-.044-.047-.088.141-.082.025-.308.167-.4l-.044-.038a1.03,1.03,0,0,1,.208-.308V23.99a1.838,1.838,0,0,1,.664-.333c.041,0,.094,0,.094.044.138.176.044.34,0,.516-.094.044,0,.132-.094.176Z" transform="translate(-44.135 -14.956)" fill="#1a1412"/>
        <path id="패스_397" data-name="패스 397" d="M35.883,7.833l.066-.013a1.18,1.18,0,0,1,0-.365c-.013-.05-.107-.019-.082-.05l-.022-.044c-.035-.026.013-.095.038-.126-.025-.126-.135.013-.186-.069l.094-.151c-.044-.088-.242-.138-.324-.189-.05.076-.044.044-.138.094L35.3,6.852c-.1.044-.148-.012-.173.026.038.019-.028.019-.05.05s-.054.076-.095.05a.17.17,0,0,0-.141-.038.311.311,0,0,1-.056.069,2.044,2.044,0,0,1-.9-.019.882.882,0,0,0-.129.031c.041.019-.035.069-.009.032.041.019-.117-.019-.138.019-.208-.006-.667.044-.578-.013-.1-.006-.311.05-.4.013-.025.126-.169-.082-.214,0,.063-.019-.082-.032-.044-.013l.006.056c-.126.037-.141-.082-.267-.038-.041-.019-.06-.038-.037-.076-.044-.019-.072-.044-.1,0l.025.05c-.066.025-.176-.107-.261-.044-.047-.019-.088-.038-.129-.05a1.211,1.211,0,0,1-.465.094L31.124,7c.044.006-.072.076-.056.031l-.094-.013a.878.878,0,0,1-.494.051c.094.019-.183-.164-.167-.069-.233.094-.5-.044-.742-.044-.016-.094-.117.056-.195,0,.016-.038.028-.082-.013-.094-.066.038-.107.019-.167.056-.05,0-.094-.013-.079-.056-.05,0-.1-.006-.11.031-.044-.006-.094-.013-.079-.056-.063.038-.123.082-.182.126-.041,0-.032-.044-.022-.088-.2.025-.311-.157-.528-.088.009-.038-.031-.044-.082-.05-.179.119-.431-.006-.591.069-.025-.082-.132-.038-.227-.038-.059.038-.094-.069-.144-.069a3.01,3.01,0,0,0-.639-.094c.088-.094-.654-.094-.94-.145-.182-.1-.4-.013-.591-.056-.006.044-.019.088-.066.088-.138-.044-.22.088-.38.132-.019.095-.123.138-.094.22-.069.094-.079.107-.129.107-.041.182-.072.17-.123.352.054,0,.1.006.088.05-.035.138.047.189.015.333.041,0,.1,0,.085.044a.207.207,0,0,0,.05.195c-.013.044-.025.088-.072.088l.035.05-.066.044a.114.114,0,0,1,.012.138c.044.05.192.056.117.145a9.567,9.567,0,0,0,.993.61c.054,0,.1.006.151.006.236.245.7.17,1.012.327.123-.088.258-.031.371-.075a.789.789,0,0,0,.078.094c.271-.076.418.063.679.038.06-.038.06-.038.126-.076.047,0,.094.006.078.057l.066-.044.038.05.063-.038c-.013.044.035.05.082.056.126-.082.2.025.349-.094a.159.159,0,0,0,.129.069c.144-.12.195.006.374-.05l.032.05.059-.032-.025-.057c.009-.019.038-.006.056-.013a3.285,3.285,0,0,0,.211.742c.038.013.088.1.113.145-.009.044-.009.044-.016.088.054.1.113.208.164.308-.035-.013-.045.032-.054.076.044.145.041.3.085.44.059.05-.009.082.056.151.006.006-.041.088-.035.094a.226.226,0,0,0,.022.151c.022.164.015.038.119.145-.1.12.072.321-.032.44.057.056.06-.025.076.019l-.038.063c-.019.031.019.05.054.063.035.082-.028.138.019.22.035.013,0,.119.038.126.006.082.11.1.016.164-.035-.013-.019.145-.05.251a.645.645,0,0,1-.012.258c.034.006.056-.031.044,0l-.022.076c.032.006.028.069.016.107,0,.113-.069.17-.11.277-.038.226.082.409-.076.5.054.044-.009.107-.025.138-.059.026-.044.138-.088.164-.056.145-.088.138-.142.277-.1.05-.11.113-.2.17a.358.358,0,0,0-.028.069c-.016.032-.047.025-.078.019-.063.063-.277.159-.308.221l.022.05a1.4,1.4,0,0,0-.308.145c-.135.082-.239.082-.387.157-.126-.037-.233.056-.362.025-.05.019-.1.05-.145.069-.063-.013-.164.032-.211-.013-.063-.025-.047.095-.11.082a.114.114,0,0,0-.063-.013l-.016-.05c-.1.05-.176-.006-.273.038l-.016-.038c-.094.05-.176-.006-.239.056a.73.73,0,0,0-.4-.044c.016-.038-.019-.044-.056-.051l-.038.032c.009-.038-.277-.013-.308-.019l-.066-.019-.016-.031-.05.025c-.054-.05-.4-.081-.478-.169-.063.063-.126.032-.2.019a3.632,3.632,0,0,1-.723-.163l-.019-.044a.294.294,0,0,1-.333-.095.824.824,0,0,1-.126-.025c-.041-.09-.28-.071-.318-.165a.914.914,0,0,1-.166-.145c-.079.05-.28-.189-.318-.208h-.132l-.053-.144L22.8,14.36c-.069-.138-.145-.031-.167-.144-.019-.095-.151-.12-.2-.12s-.157.113-.207.025a.914.914,0,0,1-.2.22.29.29,0,0,1-.185.044c-.028.138-.041.151.079.478.056.013.113.322.173.335-.025-.121.16.258.217.308l.079.019c.037.013.022.05,0,.082l.17.119c.012.044.054.056.009.119a1.038,1.038,0,0,1,.321.133c.038.019.016.05-.006.081.035.013.073.031.088,0,.1,0,.032.094.044.138l.06-.013c.013.044.085.075.085.075.113.17.66.384.8.535l.054-.025c.038.088.282.107.282.22l.05-.031c.025.044.383.113.488.17.05-.032-.019-.088.034-.12.06.057.186.17.245.22a1.737,1.737,0,0,1,.264.044c.141.145.431.057.6.132a.118.118,0,0,0,.094.063l.056-.031.022.05c.107-.056.164-.006.236-.069l.022.044.047-.025a.424.424,0,0,1,.047.088c.151.031.286.107.446.019.022.044.057.05.095.063l.11-.05c.11.019.135.063.258.05l.025.044a.556.556,0,0,1,.424-.019c.031-.069.113.025.145-.044l.022.044c.126-.088.311-.044.44-.05l.022.05c.056-.031.038,0,.038,0,.107-.05.365-.056.443-.12a.505.505,0,0,0,.346.044c.044.006.126.032.167.038a.4.4,0,0,1,.453-.019,2.654,2.654,0,0,0,.566-.239,1.063,1.063,0,0,0,.129.031c.063-.019.1-.006.145-.069a1.8,1.8,0,0,0,.484-.245c.019.044.123-.044.145.006a.2.2,0,0,1,.041-.069c.082.025.145-.075.226-.05a.663.663,0,0,0,.038-.069c.126-.044.078-.076.2-.119.107-.069.255-.314.5-.428-.006-.076.151-.119.188-.189.016-.038.06-.025.1-.013l-.025-.05c.059-.025.044-.138.094-.088.019-.038.091-.126.056-.139.119-.094.116-.39.289-.427.016-.038.016-.038.031-.069.069-.1.038-.272.079-.3.019-.031,0-.056.035-.044.041-.145.076-.352.116-.541-.035-.006-.015-.044,0-.075.035.006.05-.032.063-.063-.031-.006-.016-.05,0-.082l.054-.025c-.073-.019.009-.113-.063-.132l.047-.032c-.06-.17.028-.34-.035-.509l.051-.025a.226.226,0,0,1,0-.3.12.12,0,0,1,0-.113c-.1-.063.019-.126-.044-.176.041-.113-.079-.22-.013-.321a2.177,2.177,0,0,0-.107-.207c.012-.038.022-.076.035-.113-.041-.006-.073-.013-.066-.05.06-.063,0-.113.013-.189-.066-.013-.031-.076-.053-.119a1.065,1.065,0,0,0-.192-.516c.047-.076-.053-.365-.047-.453l-.069-.038a.367.367,0,0,0-.135-.189.4.4,0,0,0,.006-.088c-.038,0-.072-.006-.069-.051l.006-.088-.038.044a.243.243,0,0,1-.094-.233c-.132-.195-.182-.327-.377-.6-.072.044,0-.145-.088-.1a1.1,1.1,0,0,0-.324-.434c0-.038,0-.038.006-.088h-.079c-.009,0,0-.019-.009-.025A.844.844,0,0,1,32.019,9c.06.088.2-.076.28-.038s.082-.069.135.013l.016.063a.536.536,0,0,0,.05-.076.267.267,0,0,0,.2-.038c.038.013.076.044.107.006a1.669,1.669,0,0,1,.305-.063c.016.056.11-.031.082.006a.261.261,0,0,1,.214.019c.022-.038.047-.076.091-.05l.047.038a.317.317,0,0,0,.1-.056c.538-.05.833-.314,1.367-.314.091-.038.186-.082.28-.126s.176.076.195-.025c-.038-.025.107-.063.138-.094.132-.019.214-.245.264-.314-.041-.025,0-.063-.009-.119" transform="translate(-14.773 -4.338)" fill="#1a1412"/>
      </g>
    </g>
  </g>
</svg>
